G04*
G04 #@! TF.GenerationSoftware,Altium Limited,Altium Designer,25.2.1 (25)*
G04*
G04 Layer_Color=32768*
%FSLAX44Y44*%
%MOMM*%
G71*
G04*
G04 #@! TF.SameCoordinates,812CEA7C-EAD6-410B-90F9-CE58292C2D17*
G04*
G04*
G04 #@! TF.FilePolarity,Positive*
G04*
G01*
G75*
%ADD10C,0.2000*%
%ADD23C,0.1000*%
%ADD24C,0.0500*%
D10*
X179291Y179709D02*
Y200291D01*
X140709D02*
X179291D01*
X140709Y179709D02*
Y200291D01*
Y179709D02*
X179291D01*
X149709Y261033D02*
X170291D01*
X149709Y222450D02*
Y261033D01*
Y222450D02*
X170291D01*
Y261033D01*
D23*
X90000Y235000D02*
Y245000D01*
X85000Y240000D02*
X95000D01*
X230000Y235000D02*
Y245000D01*
X225000Y240000D02*
X235000D01*
X224000Y49000D02*
Y59000D01*
X219000Y54000D02*
X229000D01*
X104000Y49000D02*
Y59000D01*
X99000Y54000D02*
X109000D01*
X144000Y49000D02*
Y59000D01*
X139000Y54000D02*
X149000D01*
X184000Y49000D02*
Y59000D01*
X179000Y54000D02*
X189000D01*
D24*
X114500Y215500D02*
Y264500D01*
X75650D02*
X114500D01*
X75650Y215500D02*
X114500D01*
X75650D02*
Y264500D01*
X205500Y215500D02*
Y264500D01*
Y215500D02*
X244350D01*
X205500Y264500D02*
X244350D01*
Y215500D02*
Y264500D01*
X211000Y75500D02*
X237000D01*
X211000Y32500D02*
X237000D01*
Y75500D01*
X211000Y32500D02*
Y75500D01*
X90999D02*
X117000D01*
X90999Y32500D02*
X117000D01*
Y75500D01*
X90999Y32500D02*
Y75500D01*
X131000D02*
X157000D01*
X131000Y32500D02*
X157000D01*
Y75500D01*
X131000Y32500D02*
Y75500D01*
X171000D02*
X197000D01*
X171000Y32500D02*
X197000D01*
Y75500D01*
X171000Y32500D02*
Y75500D01*
X35050Y107750D02*
Y166850D01*
Y107750D02*
X64950D01*
Y166850D01*
X35050D02*
X64950D01*
M02*
