G04*
G04 #@! TF.GenerationSoftware,Altium Limited,Altium Designer,25.2.1 (25)*
G04*
G04 Layer_Color=65535*
%FSLAX44Y44*%
%MOMM*%
G71*
G04*
G04 #@! TF.SameCoordinates,812CEA7C-EAD6-410B-90F9-CE58292C2D17*
G04*
G04*
G04 #@! TF.FilePolarity,Positive*
G04*
G01*
G75*
%ADD10C,0.2000*%
%ADD11C,0.2500*%
G36*
X144942Y84156D02*
X146245D01*
Y83074D01*
X144942D01*
Y80772D01*
X143763D01*
Y83074D01*
X139589D01*
Y84156D01*
X143985Y90369D01*
X144942D01*
Y84156D01*
D02*
G37*
G36*
X135373Y90355D02*
X135498D01*
X135789Y90341D01*
X136094Y90300D01*
X136427Y90258D01*
X136732Y90189D01*
X136884Y90147D01*
X137009Y90105D01*
X137023D01*
X137037Y90092D01*
X137120Y90050D01*
X137245Y89994D01*
X137397Y89897D01*
X137564Y89773D01*
X137744Y89606D01*
X137911Y89412D01*
X138077Y89190D01*
Y89176D01*
X138091Y89162D01*
X138146Y89079D01*
X138202Y88940D01*
X138285Y88760D01*
X138354Y88552D01*
X138424Y88302D01*
X138465Y88039D01*
X138479Y87748D01*
Y87734D01*
Y87706D01*
Y87651D01*
X138465Y87581D01*
Y87484D01*
X138451Y87387D01*
X138396Y87151D01*
X138313Y86874D01*
X138202Y86583D01*
X138035Y86292D01*
X137924Y86153D01*
X137814Y86014D01*
X137800Y86000D01*
X137786Y85986D01*
X137744Y85945D01*
X137689Y85903D01*
X137619Y85848D01*
X137536Y85792D01*
X137425Y85723D01*
X137314Y85640D01*
X137176Y85570D01*
X137023Y85501D01*
X136857Y85418D01*
X136676Y85349D01*
X136468Y85293D01*
X136260Y85224D01*
X136025Y85182D01*
X135775Y85140D01*
X135803Y85127D01*
X135858Y85099D01*
X135941Y85043D01*
X136052Y84988D01*
X136302Y84835D01*
X136427Y84738D01*
X136538Y84655D01*
X136565Y84627D01*
X136635Y84558D01*
X136746Y84447D01*
X136884Y84308D01*
X137037Y84114D01*
X137217Y83906D01*
X137397Y83657D01*
X137592Y83379D01*
X139242Y80772D01*
X137661D01*
X136399Y82769D01*
Y82783D01*
X136371Y82811D01*
X136343Y82852D01*
X136302Y82908D01*
X136205Y83060D01*
X136080Y83254D01*
X135927Y83462D01*
X135775Y83684D01*
X135622Y83892D01*
X135484Y84087D01*
X135470Y84100D01*
X135428Y84156D01*
X135359Y84239D01*
X135262Y84336D01*
X135054Y84544D01*
X134943Y84641D01*
X134832Y84725D01*
X134818Y84738D01*
X134790Y84752D01*
X134735Y84780D01*
X134651Y84822D01*
X134568Y84863D01*
X134471Y84905D01*
X134249Y84974D01*
X134235D01*
X134208Y84988D01*
X134152D01*
X134083Y85002D01*
X133986Y85016D01*
X133875D01*
X133722Y85030D01*
X132086D01*
Y80772D01*
X130810D01*
Y90369D01*
X135262D01*
X135373Y90355D01*
D02*
G37*
G36*
X183170Y90651D02*
X183350Y90623D01*
X183572Y90581D01*
X183821Y90512D01*
X184071Y90429D01*
X184321Y90318D01*
X184335D01*
X184348Y90304D01*
X184432Y90262D01*
X184556Y90179D01*
X184695Y90082D01*
X184862Y89943D01*
X185028Y89791D01*
X185194Y89611D01*
X185333Y89403D01*
X185347Y89375D01*
X185389Y89305D01*
X185444Y89181D01*
X185513Y89028D01*
X185583Y88848D01*
X185638Y88640D01*
X185680Y88404D01*
X185694Y88168D01*
Y88140D01*
Y88057D01*
X185680Y87946D01*
X185652Y87794D01*
X185610Y87613D01*
X185541Y87419D01*
X185458Y87225D01*
X185347Y87031D01*
X185333Y87003D01*
X185291Y86948D01*
X185208Y86851D01*
X185097Y86740D01*
X184959Y86615D01*
X184792Y86476D01*
X184598Y86351D01*
X184362Y86227D01*
X184376D01*
X184404Y86213D01*
X184445Y86199D01*
X184501Y86185D01*
X184653Y86130D01*
X184848Y86046D01*
X185070Y85935D01*
X185291Y85797D01*
X185499Y85616D01*
X185694Y85408D01*
X185707Y85381D01*
X185763Y85297D01*
X185846Y85159D01*
X185929Y84979D01*
X186013Y84757D01*
X186096Y84493D01*
X186151Y84188D01*
X186165Y83855D01*
Y83841D01*
Y83800D01*
Y83730D01*
X186151Y83647D01*
X186137Y83536D01*
X186110Y83411D01*
X186082Y83273D01*
X186054Y83120D01*
X185943Y82787D01*
X185860Y82607D01*
X185777Y82441D01*
X185666Y82260D01*
X185541Y82080D01*
X185402Y81900D01*
X185236Y81733D01*
X185222Y81719D01*
X185194Y81692D01*
X185139Y81650D01*
X185070Y81595D01*
X184986Y81525D01*
X184875Y81456D01*
X184751Y81373D01*
X184598Y81303D01*
X184445Y81220D01*
X184265Y81137D01*
X184085Y81068D01*
X183877Y80998D01*
X183655Y80943D01*
X183419Y80901D01*
X183183Y80873D01*
X182920Y80860D01*
X182795D01*
X182712Y80873D01*
X182601Y80887D01*
X182476Y80901D01*
X182337Y80929D01*
X182185Y80957D01*
X181852Y81040D01*
X181505Y81179D01*
X181325Y81262D01*
X181159Y81359D01*
X180992Y81484D01*
X180826Y81608D01*
X180812Y81622D01*
X180784Y81650D01*
X180743Y81692D01*
X180701Y81747D01*
X180632Y81817D01*
X180562Y81914D01*
X180479Y82011D01*
X180396Y82135D01*
X180313Y82274D01*
X180229Y82413D01*
X180077Y82746D01*
X179952Y83134D01*
X179911Y83342D01*
X179883Y83564D01*
X181062Y83716D01*
Y83703D01*
X181075Y83675D01*
X181089Y83619D01*
X181103Y83550D01*
X181117Y83467D01*
X181145Y83370D01*
X181214Y83162D01*
X181311Y82912D01*
X181436Y82676D01*
X181575Y82454D01*
X181741Y82260D01*
X181769Y82246D01*
X181824Y82191D01*
X181935Y82122D01*
X182074Y82052D01*
X182240Y81969D01*
X182448Y81900D01*
X182684Y81844D01*
X182934Y81830D01*
X183017D01*
X183072Y81844D01*
X183225Y81858D01*
X183419Y81900D01*
X183641Y81969D01*
X183877Y82066D01*
X184113Y82205D01*
X184335Y82399D01*
X184362Y82427D01*
X184432Y82510D01*
X184515Y82635D01*
X184626Y82801D01*
X184737Y83009D01*
X184820Y83245D01*
X184889Y83522D01*
X184917Y83827D01*
Y83841D01*
Y83869D01*
Y83911D01*
X184903Y83966D01*
X184889Y84119D01*
X184848Y84299D01*
X184792Y84521D01*
X184695Y84743D01*
X184556Y84965D01*
X184376Y85173D01*
X184348Y85200D01*
X184279Y85256D01*
X184168Y85339D01*
X184016Y85436D01*
X183821Y85533D01*
X183586Y85616D01*
X183322Y85672D01*
X183031Y85700D01*
X182906D01*
X182809Y85686D01*
X182684Y85672D01*
X182546Y85644D01*
X182379Y85616D01*
X182199Y85575D01*
X182337Y86615D01*
X182407D01*
X182462Y86601D01*
X182643D01*
X182795Y86629D01*
X182975Y86657D01*
X183183Y86698D01*
X183419Y86768D01*
X183641Y86865D01*
X183877Y86989D01*
X183891D01*
X183905Y87003D01*
X183974Y87059D01*
X184071Y87156D01*
X184182Y87281D01*
X184293Y87461D01*
X184390Y87669D01*
X184459Y87905D01*
X184487Y88043D01*
Y88196D01*
Y88210D01*
Y88224D01*
Y88307D01*
X184459Y88418D01*
X184432Y88570D01*
X184376Y88737D01*
X184307Y88917D01*
X184196Y89097D01*
X184043Y89264D01*
X184029Y89278D01*
X183960Y89333D01*
X183863Y89403D01*
X183738Y89486D01*
X183572Y89555D01*
X183378Y89624D01*
X183156Y89680D01*
X182906Y89694D01*
X182795D01*
X182670Y89666D01*
X182504Y89638D01*
X182324Y89583D01*
X182143Y89514D01*
X181949Y89403D01*
X181769Y89264D01*
X181755Y89250D01*
X181700Y89181D01*
X181616Y89083D01*
X181519Y88945D01*
X181422Y88765D01*
X181325Y88543D01*
X181242Y88279D01*
X181186Y87974D01*
X180008Y88182D01*
Y88196D01*
X180021Y88238D01*
X180035Y88293D01*
X180049Y88376D01*
X180077Y88473D01*
X180119Y88584D01*
X180202Y88848D01*
X180340Y89153D01*
X180507Y89458D01*
X180715Y89749D01*
X180978Y90013D01*
X180992Y90027D01*
X181020Y90041D01*
X181062Y90068D01*
X181117Y90110D01*
X181186Y90165D01*
X181283Y90221D01*
X181381Y90276D01*
X181505Y90346D01*
X181783Y90456D01*
X182102Y90568D01*
X182476Y90637D01*
X182670Y90665D01*
X183017D01*
X183170Y90651D01*
D02*
G37*
G36*
X175251Y90609D02*
X175375D01*
X175667Y90595D01*
X175972Y90554D01*
X176305Y90512D01*
X176610Y90443D01*
X176762Y90401D01*
X176887Y90359D01*
X176901D01*
X176915Y90346D01*
X176998Y90304D01*
X177123Y90248D01*
X177276Y90151D01*
X177442Y90027D01*
X177622Y89860D01*
X177789Y89666D01*
X177955Y89444D01*
Y89430D01*
X177969Y89416D01*
X178024Y89333D01*
X178080Y89194D01*
X178163Y89014D01*
X178232Y88806D01*
X178302Y88556D01*
X178343Y88293D01*
X178357Y88002D01*
Y87988D01*
Y87960D01*
Y87905D01*
X178343Y87835D01*
Y87738D01*
X178330Y87641D01*
X178274Y87406D01*
X178191Y87128D01*
X178080Y86837D01*
X177913Y86546D01*
X177803Y86407D01*
X177691Y86268D01*
X177678Y86254D01*
X177664Y86241D01*
X177622Y86199D01*
X177567Y86157D01*
X177497Y86102D01*
X177414Y86046D01*
X177303Y85977D01*
X177192Y85894D01*
X177054Y85824D01*
X176901Y85755D01*
X176735Y85672D01*
X176554Y85603D01*
X176346Y85547D01*
X176138Y85478D01*
X175903Y85436D01*
X175653Y85394D01*
X175681Y85381D01*
X175736Y85353D01*
X175819Y85297D01*
X175930Y85242D01*
X176180Y85089D01*
X176305Y84992D01*
X176416Y84909D01*
X176443Y84881D01*
X176513Y84812D01*
X176624Y84701D01*
X176762Y84562D01*
X176915Y84368D01*
X177095Y84160D01*
X177276Y83911D01*
X177470Y83633D01*
X179120Y81026D01*
X177539D01*
X176277Y83023D01*
Y83037D01*
X176249Y83065D01*
X176222Y83106D01*
X176180Y83162D01*
X176083Y83314D01*
X175958Y83508D01*
X175805Y83716D01*
X175653Y83938D01*
X175500Y84146D01*
X175362Y84340D01*
X175348Y84354D01*
X175306Y84410D01*
X175237Y84493D01*
X175140Y84590D01*
X174932Y84798D01*
X174821Y84895D01*
X174710Y84979D01*
X174696Y84992D01*
X174668Y85006D01*
X174613Y85034D01*
X174529Y85076D01*
X174446Y85117D01*
X174349Y85159D01*
X174127Y85228D01*
X174114D01*
X174086Y85242D01*
X174030D01*
X173961Y85256D01*
X173864Y85270D01*
X173753D01*
X173600Y85284D01*
X171964D01*
Y81026D01*
X170688D01*
Y90623D01*
X175140D01*
X175251Y90609D01*
D02*
G37*
G36*
X103271Y90397D02*
X103382Y90383D01*
X103520Y90369D01*
X103673Y90341D01*
X103825Y90314D01*
X104186Y90216D01*
X104546Y90078D01*
X104727Y89994D01*
X104907Y89897D01*
X105073Y89773D01*
X105226Y89634D01*
X105240Y89620D01*
X105268Y89606D01*
X105295Y89551D01*
X105351Y89495D01*
X105420Y89426D01*
X105490Y89329D01*
X105559Y89232D01*
X105642Y89107D01*
X105781Y88843D01*
X105919Y88511D01*
X105975Y88344D01*
X106003Y88150D01*
X106030Y87956D01*
X106044Y87748D01*
Y87720D01*
Y87651D01*
X106030Y87540D01*
X106017Y87387D01*
X105989Y87221D01*
X105933Y87027D01*
X105878Y86819D01*
X105795Y86611D01*
X105781Y86583D01*
X105753Y86514D01*
X105697Y86403D01*
X105614Y86250D01*
X105503Y86084D01*
X105365Y85876D01*
X105198Y85667D01*
X105004Y85432D01*
X104976Y85404D01*
X104907Y85321D01*
X104838Y85252D01*
X104768Y85182D01*
X104685Y85099D01*
X104574Y84988D01*
X104463Y84877D01*
X104325Y84752D01*
X104186Y84614D01*
X104019Y84461D01*
X103839Y84308D01*
X103645Y84128D01*
X103423Y83948D01*
X103201Y83754D01*
X103187Y83740D01*
X103160Y83712D01*
X103104Y83671D01*
X103035Y83615D01*
X102951Y83532D01*
X102854Y83449D01*
X102633Y83268D01*
X102397Y83060D01*
X102175Y82852D01*
X101981Y82672D01*
X101897Y82603D01*
X101828Y82533D01*
X101814Y82519D01*
X101773Y82478D01*
X101717Y82422D01*
X101648Y82339D01*
X101579Y82242D01*
X101495Y82145D01*
X101329Y81909D01*
X106058D01*
Y80772D01*
X99692D01*
Y80786D01*
Y80841D01*
Y80925D01*
X99706Y81035D01*
X99720Y81160D01*
X99748Y81299D01*
X99776Y81438D01*
X99831Y81590D01*
Y81604D01*
X99845Y81618D01*
X99873Y81701D01*
X99928Y81826D01*
X100011Y81992D01*
X100122Y82187D01*
X100261Y82409D01*
X100414Y82630D01*
X100608Y82866D01*
Y82880D01*
X100635Y82894D01*
X100705Y82977D01*
X100830Y83102D01*
X101010Y83282D01*
X101218Y83490D01*
X101482Y83740D01*
X101800Y84017D01*
X102147Y84308D01*
X102161Y84322D01*
X102217Y84364D01*
X102300Y84433D01*
X102397Y84516D01*
X102522Y84627D01*
X102674Y84752D01*
X102827Y84891D01*
X103007Y85043D01*
X103354Y85376D01*
X103700Y85709D01*
X103867Y85876D01*
X104019Y86042D01*
X104158Y86194D01*
X104269Y86347D01*
Y86361D01*
X104297Y86375D01*
X104325Y86416D01*
X104352Y86472D01*
X104449Y86624D01*
X104560Y86805D01*
X104657Y87027D01*
X104754Y87262D01*
X104810Y87526D01*
X104838Y87775D01*
Y87789D01*
Y87803D01*
X104824Y87886D01*
X104810Y88025D01*
X104768Y88178D01*
X104713Y88372D01*
X104616Y88566D01*
X104491Y88760D01*
X104325Y88954D01*
X104297Y88982D01*
X104227Y89038D01*
X104130Y89107D01*
X103978Y89204D01*
X103784Y89287D01*
X103562Y89370D01*
X103298Y89426D01*
X103007Y89440D01*
X102924D01*
X102868Y89426D01*
X102702Y89412D01*
X102508Y89370D01*
X102300Y89315D01*
X102064Y89218D01*
X101842Y89093D01*
X101634Y88927D01*
X101606Y88899D01*
X101551Y88829D01*
X101468Y88719D01*
X101384Y88552D01*
X101287Y88358D01*
X101204Y88108D01*
X101149Y87831D01*
X101121Y87512D01*
X99914Y87637D01*
Y87651D01*
X99928Y87692D01*
Y87762D01*
X99942Y87859D01*
X99970Y87970D01*
X99998Y88095D01*
X100039Y88247D01*
X100081Y88400D01*
X100192Y88733D01*
X100358Y89065D01*
X100455Y89232D01*
X100580Y89398D01*
X100705Y89551D01*
X100843Y89689D01*
X100857Y89703D01*
X100885Y89717D01*
X100927Y89759D01*
X100996Y89800D01*
X101079Y89856D01*
X101176Y89911D01*
X101287Y89981D01*
X101426Y90050D01*
X101579Y90119D01*
X101745Y90189D01*
X101925Y90244D01*
X102119Y90300D01*
X102327Y90341D01*
X102549Y90383D01*
X102785Y90397D01*
X103035Y90410D01*
X103173D01*
X103271Y90397D01*
D02*
G37*
G36*
X95241Y90355D02*
X95365D01*
X95657Y90341D01*
X95962Y90300D01*
X96295Y90258D01*
X96600Y90189D01*
X96752Y90147D01*
X96877Y90105D01*
X96891D01*
X96905Y90092D01*
X96988Y90050D01*
X97113Y89994D01*
X97266Y89897D01*
X97432Y89773D01*
X97612Y89606D01*
X97779Y89412D01*
X97945Y89190D01*
Y89176D01*
X97959Y89162D01*
X98014Y89079D01*
X98070Y88940D01*
X98153Y88760D01*
X98222Y88552D01*
X98292Y88302D01*
X98333Y88039D01*
X98347Y87748D01*
Y87734D01*
Y87706D01*
Y87651D01*
X98333Y87581D01*
Y87484D01*
X98320Y87387D01*
X98264Y87151D01*
X98181Y86874D01*
X98070Y86583D01*
X97903Y86292D01*
X97793Y86153D01*
X97682Y86014D01*
X97668Y86000D01*
X97654Y85986D01*
X97612Y85945D01*
X97557Y85903D01*
X97487Y85848D01*
X97404Y85792D01*
X97293Y85723D01*
X97182Y85640D01*
X97044Y85570D01*
X96891Y85501D01*
X96725Y85418D01*
X96544Y85349D01*
X96336Y85293D01*
X96128Y85224D01*
X95892Y85182D01*
X95643Y85140D01*
X95671Y85127D01*
X95726Y85099D01*
X95809Y85043D01*
X95920Y84988D01*
X96170Y84835D01*
X96295Y84738D01*
X96406Y84655D01*
X96433Y84627D01*
X96503Y84558D01*
X96614Y84447D01*
X96752Y84308D01*
X96905Y84114D01*
X97085Y83906D01*
X97266Y83657D01*
X97460Y83379D01*
X99110Y80772D01*
X97529D01*
X96267Y82769D01*
Y82783D01*
X96239Y82811D01*
X96212Y82852D01*
X96170Y82908D01*
X96073Y83060D01*
X95948Y83254D01*
X95795Y83462D01*
X95643Y83684D01*
X95490Y83892D01*
X95352Y84087D01*
X95338Y84100D01*
X95296Y84156D01*
X95227Y84239D01*
X95130Y84336D01*
X94922Y84544D01*
X94811Y84641D01*
X94700Y84725D01*
X94686Y84738D01*
X94658Y84752D01*
X94603Y84780D01*
X94520Y84822D01*
X94436Y84863D01*
X94339Y84905D01*
X94117Y84974D01*
X94103D01*
X94076Y84988D01*
X94020D01*
X93951Y85002D01*
X93854Y85016D01*
X93743D01*
X93590Y85030D01*
X91954D01*
Y80772D01*
X90678D01*
Y90369D01*
X95130D01*
X95241Y90355D01*
D02*
G37*
G36*
X224439Y80772D02*
X223260D01*
Y88275D01*
X223246Y88261D01*
X223177Y88205D01*
X223093Y88122D01*
X222955Y88025D01*
X222802Y87900D01*
X222608Y87762D01*
X222386Y87609D01*
X222137Y87457D01*
X222123D01*
X222109Y87443D01*
X222026Y87387D01*
X221887Y87318D01*
X221721Y87235D01*
X221526Y87138D01*
X221318Y87041D01*
X221110Y86943D01*
X220902Y86860D01*
Y87997D01*
X220916D01*
X220944Y88025D01*
X220999Y88039D01*
X221069Y88081D01*
X221152Y88122D01*
X221249Y88178D01*
X221485Y88316D01*
X221762Y88469D01*
X222040Y88663D01*
X222331Y88885D01*
X222622Y89121D01*
X222636Y89135D01*
X222650Y89149D01*
X222691Y89190D01*
X222747Y89232D01*
X222872Y89370D01*
X223038Y89537D01*
X223204Y89731D01*
X223385Y89953D01*
X223537Y90175D01*
X223676Y90410D01*
X224439D01*
Y80772D01*
D02*
G37*
G36*
X215383Y90355D02*
X215508D01*
X215799Y90341D01*
X216104Y90300D01*
X216437Y90258D01*
X216742Y90189D01*
X216894Y90147D01*
X217019Y90105D01*
X217033D01*
X217047Y90092D01*
X217130Y90050D01*
X217255Y89994D01*
X217407Y89897D01*
X217574Y89773D01*
X217754Y89606D01*
X217921Y89412D01*
X218087Y89190D01*
Y89176D01*
X218101Y89162D01*
X218156Y89079D01*
X218212Y88940D01*
X218295Y88760D01*
X218364Y88552D01*
X218434Y88302D01*
X218475Y88039D01*
X218489Y87748D01*
Y87734D01*
Y87706D01*
Y87651D01*
X218475Y87581D01*
Y87484D01*
X218461Y87387D01*
X218406Y87151D01*
X218323Y86874D01*
X218212Y86583D01*
X218045Y86292D01*
X217934Y86153D01*
X217824Y86014D01*
X217810Y86000D01*
X217796Y85986D01*
X217754Y85945D01*
X217699Y85903D01*
X217629Y85848D01*
X217546Y85792D01*
X217435Y85723D01*
X217324Y85640D01*
X217186Y85570D01*
X217033Y85501D01*
X216867Y85418D01*
X216686Y85349D01*
X216478Y85293D01*
X216270Y85224D01*
X216035Y85182D01*
X215785Y85140D01*
X215813Y85127D01*
X215868Y85099D01*
X215951Y85043D01*
X216062Y84988D01*
X216312Y84835D01*
X216437Y84738D01*
X216548Y84655D01*
X216575Y84627D01*
X216645Y84558D01*
X216756Y84447D01*
X216894Y84308D01*
X217047Y84114D01*
X217227Y83906D01*
X217407Y83657D01*
X217602Y83379D01*
X219252Y80772D01*
X217671D01*
X216409Y82769D01*
Y82783D01*
X216381Y82811D01*
X216353Y82852D01*
X216312Y82908D01*
X216215Y83060D01*
X216090Y83254D01*
X215937Y83462D01*
X215785Y83684D01*
X215632Y83892D01*
X215494Y84087D01*
X215480Y84100D01*
X215438Y84156D01*
X215369Y84239D01*
X215272Y84336D01*
X215064Y84544D01*
X214953Y84641D01*
X214842Y84725D01*
X214828Y84738D01*
X214800Y84752D01*
X214745Y84780D01*
X214662Y84822D01*
X214578Y84863D01*
X214481Y84905D01*
X214259Y84974D01*
X214245D01*
X214218Y84988D01*
X214162D01*
X214093Y85002D01*
X213996Y85016D01*
X213885D01*
X213732Y85030D01*
X212096D01*
Y80772D01*
X210820D01*
Y90369D01*
X215272D01*
X215383Y90355D01*
D02*
G37*
G36*
X95513Y205117D02*
X95624Y205104D01*
X95762Y205090D01*
X95915Y205062D01*
X96067Y205034D01*
X96428Y204937D01*
X96789Y204799D01*
X96969Y204715D01*
X97149Y204618D01*
X97316Y204493D01*
X97468Y204355D01*
X97482Y204341D01*
X97510Y204327D01*
X97537Y204272D01*
X97593Y204216D01*
X97662Y204147D01*
X97732Y204050D01*
X97801Y203953D01*
X97884Y203828D01*
X98023Y203564D01*
X98162Y203231D01*
X98217Y203065D01*
X98245Y202871D01*
X98272Y202677D01*
X98286Y202469D01*
Y202441D01*
Y202372D01*
X98272Y202261D01*
X98259Y202108D01*
X98231Y201942D01*
X98175Y201747D01*
X98120Y201539D01*
X98037Y201331D01*
X98023Y201304D01*
X97995Y201234D01*
X97940Y201123D01*
X97856Y200971D01*
X97746Y200804D01*
X97607Y200596D01*
X97440Y200388D01*
X97246Y200153D01*
X97219Y200125D01*
X97149Y200042D01*
X97080Y199972D01*
X97010Y199903D01*
X96927Y199820D01*
X96816Y199709D01*
X96705Y199598D01*
X96567Y199473D01*
X96428Y199334D01*
X96262Y199182D01*
X96081Y199029D01*
X95887Y198849D01*
X95665Y198669D01*
X95443Y198475D01*
X95429Y198461D01*
X95402Y198433D01*
X95346Y198391D01*
X95277Y198336D01*
X95194Y198253D01*
X95097Y198169D01*
X94875Y197989D01*
X94639Y197781D01*
X94417Y197573D01*
X94223Y197393D01*
X94140Y197323D01*
X94070Y197254D01*
X94057Y197240D01*
X94015Y197199D01*
X93959Y197143D01*
X93890Y197060D01*
X93821Y196963D01*
X93737Y196866D01*
X93571Y196630D01*
X98300D01*
Y195493D01*
X91935D01*
Y195507D01*
Y195562D01*
Y195645D01*
X91948Y195756D01*
X91962Y195881D01*
X91990Y196020D01*
X92018Y196159D01*
X92073Y196311D01*
Y196325D01*
X92087Y196339D01*
X92115Y196422D01*
X92170Y196547D01*
X92254Y196713D01*
X92365Y196907D01*
X92503Y197129D01*
X92656Y197351D01*
X92850Y197587D01*
Y197601D01*
X92878Y197615D01*
X92947Y197698D01*
X93072Y197823D01*
X93252Y198003D01*
X93460Y198211D01*
X93724Y198461D01*
X94043Y198738D01*
X94389Y199029D01*
X94403Y199043D01*
X94459Y199085D01*
X94542Y199154D01*
X94639Y199237D01*
X94764Y199348D01*
X94916Y199473D01*
X95069Y199612D01*
X95249Y199764D01*
X95596Y200097D01*
X95943Y200430D01*
X96109Y200596D01*
X96262Y200763D01*
X96400Y200915D01*
X96511Y201068D01*
Y201082D01*
X96539Y201096D01*
X96567Y201137D01*
X96594Y201193D01*
X96692Y201345D01*
X96802Y201525D01*
X96899Y201747D01*
X96997Y201983D01*
X97052Y202247D01*
X97080Y202496D01*
Y202510D01*
Y202524D01*
X97066Y202607D01*
X97052Y202746D01*
X97010Y202899D01*
X96955Y203093D01*
X96858Y203287D01*
X96733Y203481D01*
X96567Y203675D01*
X96539Y203703D01*
X96470Y203758D01*
X96372Y203828D01*
X96220Y203925D01*
X96026Y204008D01*
X95804Y204091D01*
X95540Y204147D01*
X95249Y204160D01*
X95166D01*
X95111Y204147D01*
X94944Y204133D01*
X94750Y204091D01*
X94542Y204036D01*
X94306Y203939D01*
X94084Y203814D01*
X93876Y203647D01*
X93848Y203620D01*
X93793Y203550D01*
X93710Y203439D01*
X93627Y203273D01*
X93530Y203079D01*
X93446Y202829D01*
X93391Y202552D01*
X93363Y202233D01*
X92156Y202358D01*
Y202372D01*
X92170Y202413D01*
Y202482D01*
X92184Y202579D01*
X92212Y202691D01*
X92240Y202815D01*
X92281Y202968D01*
X92323Y203120D01*
X92434Y203453D01*
X92600Y203786D01*
X92697Y203953D01*
X92822Y204119D01*
X92947Y204272D01*
X93086Y204410D01*
X93100Y204424D01*
X93127Y204438D01*
X93169Y204480D01*
X93238Y204521D01*
X93322Y204577D01*
X93419Y204632D01*
X93530Y204701D01*
X93668Y204771D01*
X93821Y204840D01*
X93987Y204909D01*
X94167Y204965D01*
X94362Y205020D01*
X94570Y205062D01*
X94791Y205104D01*
X95027Y205117D01*
X95277Y205131D01*
X95416D01*
X95513Y205117D01*
D02*
G37*
G36*
X86512Y205242D02*
X86637D01*
X86762Y205228D01*
X86928Y205201D01*
X87095Y205173D01*
X87455Y205104D01*
X87871Y204993D01*
X88273Y204826D01*
X88481Y204729D01*
X88689Y204618D01*
X88703Y204604D01*
X88731Y204590D01*
X88786Y204549D01*
X88870Y204507D01*
X88953Y204438D01*
X89064Y204355D01*
X89300Y204160D01*
X89549Y203911D01*
X89827Y203606D01*
X90090Y203245D01*
X90312Y202843D01*
Y202829D01*
X90340Y202788D01*
X90367Y202732D01*
X90395Y202649D01*
X90451Y202538D01*
X90492Y202413D01*
X90548Y202261D01*
X90603Y202094D01*
X90645Y201914D01*
X90700Y201720D01*
X90756Y201512D01*
X90797Y201290D01*
X90853Y200804D01*
X90881Y200291D01*
Y200277D01*
Y200236D01*
Y200180D01*
Y200097D01*
X90867Y199986D01*
Y199861D01*
X90853Y199723D01*
X90839Y199584D01*
X90797Y199251D01*
X90728Y198890D01*
X90645Y198516D01*
X90520Y198155D01*
Y198142D01*
X90506Y198114D01*
X90478Y198058D01*
X90451Y198003D01*
X90409Y197920D01*
X90367Y197823D01*
X90257Y197601D01*
X90104Y197337D01*
X89910Y197060D01*
X89688Y196782D01*
X89438Y196505D01*
X89452D01*
X89480Y196477D01*
X89522Y196450D01*
X89591Y196408D01*
X89660Y196353D01*
X89757Y196297D01*
X89965Y196172D01*
X90215Y196020D01*
X90492Y195867D01*
X90784Y195742D01*
X91061Y195618D01*
X90687Y194744D01*
X90673D01*
X90645Y194758D01*
X90589Y194785D01*
X90506Y194813D01*
X90409Y194855D01*
X90298Y194910D01*
X90173Y194966D01*
X90035Y195035D01*
X89730Y195201D01*
X89383Y195396D01*
X89008Y195645D01*
X88620Y195923D01*
X88606D01*
X88579Y195895D01*
X88509Y195867D01*
X88440Y195826D01*
X88329Y195784D01*
X88218Y195728D01*
X88079Y195687D01*
X87927Y195632D01*
X87760Y195576D01*
X87580Y195520D01*
X87178Y195423D01*
X86734Y195354D01*
X86498Y195340D01*
X86263Y195326D01*
X86138D01*
X86041Y195340D01*
X85930D01*
X85791Y195354D01*
X85638Y195382D01*
X85472Y195410D01*
X85111Y195479D01*
X84709Y195590D01*
X84293Y195742D01*
X84099Y195840D01*
X83891Y195950D01*
X83877Y195964D01*
X83849Y195978D01*
X83794Y196020D01*
X83724Y196061D01*
X83628Y196131D01*
X83530Y196214D01*
X83295Y196408D01*
X83031Y196658D01*
X82768Y196963D01*
X82504Y197309D01*
X82268Y197712D01*
Y197726D01*
X82241Y197767D01*
X82213Y197823D01*
X82185Y197906D01*
X82143Y198017D01*
X82088Y198142D01*
X82033Y198294D01*
X81991Y198461D01*
X81936Y198641D01*
X81880Y198835D01*
X81838Y199043D01*
X81783Y199279D01*
X81728Y199764D01*
X81700Y200277D01*
Y200291D01*
Y200347D01*
Y200416D01*
X81714Y200513D01*
Y200638D01*
X81728Y200791D01*
X81741Y200957D01*
X81769Y201137D01*
X81838Y201539D01*
X81936Y201969D01*
X82074Y202427D01*
X82268Y202871D01*
X82282Y202885D01*
X82296Y202926D01*
X82324Y202982D01*
X82379Y203065D01*
X82435Y203162D01*
X82504Y203273D01*
X82698Y203536D01*
X82920Y203814D01*
X83211Y204105D01*
X83530Y204396D01*
X83905Y204646D01*
X83919Y204660D01*
X83960Y204674D01*
X84016Y204701D01*
X84099Y204743D01*
X84196Y204785D01*
X84307Y204840D01*
X84446Y204896D01*
X84598Y204951D01*
X84778Y205007D01*
X84959Y205062D01*
X85361Y205159D01*
X85805Y205228D01*
X86041Y205256D01*
X86415D01*
X86512Y205242D01*
D02*
G37*
G36*
X267420Y205493D02*
X266241D01*
Y212996D01*
X266227Y212982D01*
X266158Y212926D01*
X266074Y212843D01*
X265936Y212746D01*
X265783Y212621D01*
X265589Y212482D01*
X265367Y212330D01*
X265117Y212177D01*
X265104D01*
X265090Y212164D01*
X265007Y212108D01*
X264868Y212039D01*
X264701Y211956D01*
X264507Y211858D01*
X264299Y211761D01*
X264091Y211664D01*
X263883Y211581D01*
Y212718D01*
X263897D01*
X263925Y212746D01*
X263980Y212760D01*
X264050Y212801D01*
X264133Y212843D01*
X264230Y212899D01*
X264466Y213037D01*
X264743Y213190D01*
X265020Y213384D01*
X265312Y213606D01*
X265603Y213842D01*
X265617Y213855D01*
X265631Y213869D01*
X265672Y213911D01*
X265728Y213953D01*
X265853Y214091D01*
X266019Y214258D01*
X266185Y214452D01*
X266366Y214674D01*
X266518Y214896D01*
X266657Y215131D01*
X267420D01*
Y205493D01*
D02*
G37*
G36*
X257393Y215242D02*
X257518D01*
X257642Y215228D01*
X257809Y215201D01*
X257975Y215173D01*
X258336Y215104D01*
X258752Y214993D01*
X259154Y214826D01*
X259362Y214729D01*
X259570Y214618D01*
X259584Y214604D01*
X259612Y214590D01*
X259667Y214549D01*
X259750Y214507D01*
X259834Y214438D01*
X259944Y214355D01*
X260180Y214160D01*
X260430Y213911D01*
X260707Y213606D01*
X260971Y213245D01*
X261193Y212843D01*
Y212829D01*
X261220Y212788D01*
X261248Y212732D01*
X261276Y212649D01*
X261331Y212538D01*
X261373Y212413D01*
X261428Y212261D01*
X261484Y212094D01*
X261525Y211914D01*
X261581Y211720D01*
X261637Y211512D01*
X261678Y211290D01*
X261733Y210804D01*
X261761Y210291D01*
Y210277D01*
Y210236D01*
Y210180D01*
Y210097D01*
X261747Y209986D01*
Y209861D01*
X261733Y209723D01*
X261720Y209584D01*
X261678Y209251D01*
X261609Y208890D01*
X261525Y208516D01*
X261401Y208155D01*
Y208142D01*
X261387Y208114D01*
X261359Y208058D01*
X261331Y208003D01*
X261290Y207920D01*
X261248Y207823D01*
X261137Y207601D01*
X260985Y207337D01*
X260791Y207060D01*
X260569Y206782D01*
X260319Y206505D01*
X260333D01*
X260361Y206477D01*
X260402Y206450D01*
X260471Y206408D01*
X260541Y206353D01*
X260638Y206297D01*
X260846Y206172D01*
X261096Y206020D01*
X261373Y205867D01*
X261664Y205742D01*
X261942Y205618D01*
X261567Y204744D01*
X261553D01*
X261525Y204758D01*
X261470Y204785D01*
X261387Y204813D01*
X261290Y204855D01*
X261179Y204910D01*
X261054Y204966D01*
X260915Y205035D01*
X260610Y205201D01*
X260264Y205396D01*
X259889Y205645D01*
X259501Y205923D01*
X259487D01*
X259459Y205895D01*
X259390Y205867D01*
X259320Y205826D01*
X259209Y205784D01*
X259098Y205728D01*
X258960Y205687D01*
X258807Y205632D01*
X258641Y205576D01*
X258461Y205520D01*
X258058Y205423D01*
X257615Y205354D01*
X257379Y205340D01*
X257143Y205326D01*
X257018D01*
X256921Y205340D01*
X256810D01*
X256672Y205354D01*
X256519Y205382D01*
X256353Y205410D01*
X255992Y205479D01*
X255590Y205590D01*
X255174Y205742D01*
X254980Y205840D01*
X254772Y205950D01*
X254758Y205964D01*
X254730Y205978D01*
X254674Y206020D01*
X254605Y206061D01*
X254508Y206131D01*
X254411Y206214D01*
X254175Y206408D01*
X253912Y206658D01*
X253648Y206963D01*
X253385Y207309D01*
X253149Y207712D01*
Y207726D01*
X253121Y207767D01*
X253093Y207823D01*
X253066Y207906D01*
X253024Y208017D01*
X252969Y208142D01*
X252913Y208294D01*
X252872Y208461D01*
X252816Y208641D01*
X252761Y208835D01*
X252719Y209043D01*
X252664Y209279D01*
X252608Y209764D01*
X252580Y210277D01*
Y210291D01*
Y210347D01*
Y210416D01*
X252594Y210513D01*
Y210638D01*
X252608Y210791D01*
X252622Y210957D01*
X252650Y211137D01*
X252719Y211539D01*
X252816Y211969D01*
X252955Y212427D01*
X253149Y212871D01*
X253163Y212885D01*
X253177Y212926D01*
X253204Y212982D01*
X253260Y213065D01*
X253315Y213162D01*
X253385Y213273D01*
X253579Y213536D01*
X253801Y213814D01*
X254092Y214105D01*
X254411Y214396D01*
X254785Y214646D01*
X254799Y214660D01*
X254841Y214674D01*
X254896Y214701D01*
X254980Y214743D01*
X255077Y214785D01*
X255188Y214840D01*
X255326Y214896D01*
X255479Y214951D01*
X255659Y215007D01*
X255840Y215062D01*
X256242Y215159D01*
X256685Y215228D01*
X256921Y215256D01*
X257296D01*
X257393Y215242D01*
D02*
G37*
G36*
X47696Y172212D02*
X46517D01*
Y179715D01*
X46503Y179701D01*
X46434Y179646D01*
X46350Y179562D01*
X46212Y179465D01*
X46059Y179340D01*
X45865Y179202D01*
X45643Y179049D01*
X45394Y178897D01*
X45380D01*
X45366Y178883D01*
X45283Y178827D01*
X45144Y178758D01*
X44977Y178675D01*
X44783Y178578D01*
X44575Y178480D01*
X44367Y178383D01*
X44159Y178300D01*
Y179437D01*
X44173D01*
X44201Y179465D01*
X44256Y179479D01*
X44326Y179521D01*
X44409Y179562D01*
X44506Y179618D01*
X44742Y179756D01*
X45019Y179909D01*
X45296Y180103D01*
X45588Y180325D01*
X45879Y180561D01*
X45893Y180575D01*
X45907Y180588D01*
X45948Y180630D01*
X46004Y180672D01*
X46129Y180810D01*
X46295Y180977D01*
X46461Y181171D01*
X46642Y181393D01*
X46794Y181615D01*
X46933Y181850D01*
X47696D01*
Y172212D01*
D02*
G37*
G36*
X38945Y181795D02*
X39180Y181781D01*
X39430Y181767D01*
X39666Y181740D01*
X39874Y181712D01*
X39902D01*
X39999Y181684D01*
X40124Y181656D01*
X40290Y181615D01*
X40470Y181545D01*
X40664Y181462D01*
X40872Y181365D01*
X41053Y181254D01*
X41080Y181240D01*
X41136Y181199D01*
X41219Y181115D01*
X41330Y181018D01*
X41455Y180894D01*
X41580Y180727D01*
X41718Y180547D01*
X41829Y180339D01*
X41843Y180311D01*
X41871Y180242D01*
X41926Y180117D01*
X41982Y179951D01*
X42023Y179756D01*
X42079Y179534D01*
X42107Y179285D01*
X42120Y179021D01*
Y179007D01*
Y178966D01*
Y178910D01*
X42107Y178813D01*
X42093Y178716D01*
X42079Y178591D01*
X42051Y178453D01*
X42023Y178300D01*
X41926Y177981D01*
X41871Y177815D01*
X41788Y177635D01*
X41691Y177454D01*
X41593Y177288D01*
X41469Y177121D01*
X41330Y176955D01*
X41316Y176941D01*
X41288Y176913D01*
X41247Y176872D01*
X41178Y176830D01*
X41094Y176761D01*
X40983Y176691D01*
X40845Y176608D01*
X40692Y176539D01*
X40512Y176456D01*
X40304Y176373D01*
X40082Y176303D01*
X39818Y176248D01*
X39541Y176192D01*
X39236Y176151D01*
X38889Y176123D01*
X38529Y176109D01*
X36074D01*
Y172212D01*
X34798D01*
Y181809D01*
X38737D01*
X38945Y181795D01*
D02*
G37*
G36*
X144457Y216252D02*
X144582Y216238D01*
X144734Y216224D01*
X144887Y216210D01*
X145067Y216168D01*
X145442Y216085D01*
X145858Y215960D01*
X146066Y215877D01*
X146260Y215780D01*
X146454Y215655D01*
X146648Y215530D01*
X146662Y215516D01*
X146690Y215503D01*
X146745Y215461D01*
X146814Y215392D01*
X146884Y215322D01*
X146981Y215225D01*
X147078Y215114D01*
X147189Y215003D01*
X147300Y214865D01*
X147411Y214698D01*
X147536Y214532D01*
X147647Y214352D01*
X147744Y214144D01*
X147855Y213936D01*
X147938Y213714D01*
X148021Y213464D01*
X146773Y213173D01*
Y213187D01*
X146759Y213214D01*
X146731Y213270D01*
X146704Y213339D01*
X146676Y213422D01*
X146634Y213533D01*
X146523Y213755D01*
X146385Y214005D01*
X146218Y214254D01*
X146010Y214490D01*
X145788Y214698D01*
X145760Y214726D01*
X145677Y214781D01*
X145539Y214851D01*
X145358Y214948D01*
X145122Y215031D01*
X144859Y215114D01*
X144540Y215170D01*
X144193Y215184D01*
X144082D01*
X144013Y215170D01*
X143916D01*
X143805Y215156D01*
X143541Y215114D01*
X143250Y215059D01*
X142945Y214962D01*
X142626Y214823D01*
X142335Y214643D01*
X142321D01*
X142307Y214615D01*
X142210Y214546D01*
X142085Y214435D01*
X141933Y214268D01*
X141753Y214060D01*
X141586Y213825D01*
X141433Y213533D01*
X141295Y213214D01*
Y213200D01*
X141281Y213173D01*
X141267Y213131D01*
X141253Y213062D01*
X141226Y212978D01*
X141198Y212882D01*
X141156Y212646D01*
X141101Y212368D01*
X141045Y212063D01*
X141018Y211730D01*
X141004Y211370D01*
Y211356D01*
Y211314D01*
Y211245D01*
Y211162D01*
X141018Y211065D01*
Y210940D01*
X141031Y210801D01*
X141045Y210649D01*
X141087Y210316D01*
X141156Y209955D01*
X141239Y209595D01*
X141350Y209234D01*
Y209220D01*
X141364Y209193D01*
X141392Y209151D01*
X141420Y209081D01*
X141503Y208915D01*
X141628Y208721D01*
X141780Y208499D01*
X141974Y208263D01*
X142196Y208055D01*
X142460Y207861D01*
X142474D01*
X142501Y207847D01*
X142543Y207819D01*
X142598Y207792D01*
X142668Y207764D01*
X142751Y207722D01*
X142945Y207639D01*
X143195Y207556D01*
X143472Y207487D01*
X143777Y207431D01*
X144096Y207417D01*
X144193D01*
X144277Y207431D01*
X144374D01*
X144471Y207445D01*
X144720Y207500D01*
X145012Y207570D01*
X145303Y207681D01*
X145608Y207833D01*
X145760Y207917D01*
X145899Y208027D01*
X145913Y208041D01*
X145927Y208055D01*
X145969Y208097D01*
X146024Y208139D01*
X146080Y208208D01*
X146149Y208291D01*
X146232Y208374D01*
X146301Y208485D01*
X146385Y208610D01*
X146482Y208749D01*
X146565Y208887D01*
X146648Y209054D01*
X146717Y209234D01*
X146787Y209428D01*
X146856Y209636D01*
X146912Y209858D01*
X148188Y209539D01*
Y209525D01*
X148174Y209470D01*
X148146Y209387D01*
X148104Y209276D01*
X148063Y209151D01*
X148007Y208998D01*
X147938Y208832D01*
X147855Y208652D01*
X147661Y208263D01*
X147411Y207875D01*
X147258Y207681D01*
X147106Y207487D01*
X146939Y207320D01*
X146745Y207154D01*
X146731Y207140D01*
X146704Y207112D01*
X146634Y207085D01*
X146565Y207029D01*
X146454Y206960D01*
X146343Y206890D01*
X146190Y206821D01*
X146038Y206752D01*
X145858Y206668D01*
X145663Y206599D01*
X145455Y206530D01*
X145233Y206460D01*
X144998Y206405D01*
X144748Y206377D01*
X144485Y206349D01*
X144207Y206336D01*
X144055D01*
X143944Y206349D01*
X143819D01*
X143666Y206363D01*
X143500Y206391D01*
X143306Y206419D01*
X142904Y206488D01*
X142487Y206599D01*
X142072Y206752D01*
X141877Y206849D01*
X141683Y206960D01*
X141669Y206973D01*
X141642Y206987D01*
X141586Y207029D01*
X141531Y207085D01*
X141447Y207140D01*
X141350Y207223D01*
X141239Y207320D01*
X141128Y207431D01*
X141018Y207556D01*
X140893Y207681D01*
X140643Y208000D01*
X140407Y208374D01*
X140199Y208790D01*
Y208804D01*
X140171Y208846D01*
X140158Y208915D01*
X140116Y208998D01*
X140088Y209109D01*
X140047Y209248D01*
X139991Y209401D01*
X139950Y209567D01*
X139908Y209747D01*
X139853Y209955D01*
X139783Y210385D01*
X139728Y210870D01*
X139700Y211370D01*
Y211384D01*
Y211439D01*
Y211522D01*
X139714Y211619D01*
Y211758D01*
X139728Y211897D01*
X139742Y212077D01*
X139769Y212257D01*
X139839Y212660D01*
X139936Y213103D01*
X140074Y213547D01*
X140269Y213977D01*
X140282Y213991D01*
X140296Y214032D01*
X140324Y214088D01*
X140380Y214157D01*
X140435Y214254D01*
X140504Y214365D01*
X140685Y214615D01*
X140920Y214892D01*
X141198Y215170D01*
X141517Y215447D01*
X141891Y215683D01*
X141905Y215697D01*
X141947Y215711D01*
X142002Y215738D01*
X142072Y215780D01*
X142182Y215822D01*
X142293Y215863D01*
X142432Y215919D01*
X142585Y215974D01*
X142751Y216030D01*
X142931Y216085D01*
X143320Y216168D01*
X143763Y216238D01*
X144221Y216265D01*
X144360D01*
X144457Y216252D01*
D02*
G37*
G36*
X152681Y216127D02*
X152792Y216113D01*
X152930Y216099D01*
X153083Y216071D01*
X153236Y216043D01*
X153596Y215946D01*
X153957Y215808D01*
X154137Y215725D01*
X154317Y215627D01*
X154484Y215503D01*
X154636Y215364D01*
X154650Y215350D01*
X154678Y215336D01*
X154706Y215281D01*
X154761Y215225D01*
X154830Y215156D01*
X154900Y215059D01*
X154969Y214962D01*
X155052Y214837D01*
X155191Y214573D01*
X155330Y214241D01*
X155385Y214074D01*
X155413Y213880D01*
X155441Y213686D01*
X155455Y213478D01*
Y213450D01*
Y213381D01*
X155441Y213270D01*
X155427Y213117D01*
X155399Y212951D01*
X155344Y212757D01*
X155288Y212549D01*
X155205Y212341D01*
X155191Y212313D01*
X155163Y212243D01*
X155108Y212133D01*
X155025Y211980D01*
X154914Y211814D01*
X154775Y211606D01*
X154608Y211397D01*
X154414Y211162D01*
X154387Y211134D01*
X154317Y211051D01*
X154248Y210982D01*
X154179Y210912D01*
X154095Y210829D01*
X153984Y210718D01*
X153874Y210607D01*
X153735Y210482D01*
X153596Y210343D01*
X153430Y210191D01*
X153249Y210038D01*
X153055Y209858D01*
X152833Y209678D01*
X152612Y209484D01*
X152598Y209470D01*
X152570Y209442D01*
X152514Y209401D01*
X152445Y209345D01*
X152362Y209262D01*
X152265Y209179D01*
X152043Y208998D01*
X151807Y208790D01*
X151585Y208582D01*
X151391Y208402D01*
X151308Y208333D01*
X151238Y208263D01*
X151225Y208249D01*
X151183Y208208D01*
X151128Y208152D01*
X151058Y208069D01*
X150989Y207972D01*
X150906Y207875D01*
X150739Y207639D01*
X155468D01*
Y206502D01*
X149103D01*
Y206516D01*
Y206571D01*
Y206655D01*
X149117Y206765D01*
X149130Y206890D01*
X149158Y207029D01*
X149186Y207168D01*
X149242Y207320D01*
Y207334D01*
X149255Y207348D01*
X149283Y207431D01*
X149339Y207556D01*
X149422Y207722D01*
X149533Y207917D01*
X149671Y208139D01*
X149824Y208360D01*
X150018Y208596D01*
Y208610D01*
X150046Y208624D01*
X150115Y208707D01*
X150240Y208832D01*
X150420Y209012D01*
X150628Y209220D01*
X150892Y209470D01*
X151211Y209747D01*
X151558Y210038D01*
X151571Y210052D01*
X151627Y210094D01*
X151710Y210163D01*
X151807Y210247D01*
X151932Y210357D01*
X152085Y210482D01*
X152237Y210621D01*
X152417Y210774D01*
X152764Y211106D01*
X153111Y211439D01*
X153277Y211606D01*
X153430Y211772D01*
X153568Y211924D01*
X153679Y212077D01*
Y212091D01*
X153707Y212105D01*
X153735Y212146D01*
X153763Y212202D01*
X153860Y212355D01*
X153971Y212535D01*
X154068Y212757D01*
X154165Y212992D01*
X154220Y213256D01*
X154248Y213505D01*
Y213519D01*
Y213533D01*
X154234Y213617D01*
X154220Y213755D01*
X154179Y213908D01*
X154123Y214102D01*
X154026Y214296D01*
X153901Y214490D01*
X153735Y214684D01*
X153707Y214712D01*
X153638Y214768D01*
X153541Y214837D01*
X153388Y214934D01*
X153194Y215017D01*
X152972Y215100D01*
X152709Y215156D01*
X152417Y215170D01*
X152334D01*
X152279Y215156D01*
X152112Y215142D01*
X151918Y215100D01*
X151710Y215045D01*
X151474Y214948D01*
X151252Y214823D01*
X151044Y214657D01*
X151017Y214629D01*
X150961Y214559D01*
X150878Y214449D01*
X150795Y214282D01*
X150698Y214088D01*
X150614Y213838D01*
X150559Y213561D01*
X150531Y213242D01*
X149325Y213367D01*
Y213381D01*
X149339Y213422D01*
Y213492D01*
X149352Y213589D01*
X149380Y213700D01*
X149408Y213825D01*
X149450Y213977D01*
X149491Y214130D01*
X149602Y214463D01*
X149768Y214795D01*
X149866Y214962D01*
X149990Y215128D01*
X150115Y215281D01*
X150254Y215419D01*
X150268Y215433D01*
X150295Y215447D01*
X150337Y215489D01*
X150406Y215530D01*
X150490Y215586D01*
X150587Y215641D01*
X150698Y215711D01*
X150836Y215780D01*
X150989Y215849D01*
X151155Y215919D01*
X151336Y215974D01*
X151530Y216030D01*
X151738Y216071D01*
X151960Y216113D01*
X152195Y216127D01*
X152445Y216140D01*
X152584D01*
X152681Y216127D01*
D02*
G37*
G36*
X153347Y276957D02*
X153472Y276944D01*
X153624Y276930D01*
X153777Y276916D01*
X153957Y276874D01*
X154332Y276791D01*
X154748Y276666D01*
X154956Y276583D01*
X155150Y276486D01*
X155344Y276361D01*
X155538Y276236D01*
X155552Y276222D01*
X155580Y276209D01*
X155635Y276167D01*
X155704Y276098D01*
X155774Y276028D01*
X155871Y275931D01*
X155968Y275820D01*
X156079Y275709D01*
X156190Y275571D01*
X156301Y275404D01*
X156426Y275238D01*
X156537Y275058D01*
X156634Y274849D01*
X156745Y274641D01*
X156828Y274420D01*
X156911Y274170D01*
X155663Y273879D01*
Y273893D01*
X155649Y273920D01*
X155621Y273976D01*
X155594Y274045D01*
X155566Y274128D01*
X155524Y274239D01*
X155413Y274461D01*
X155275Y274711D01*
X155108Y274960D01*
X154900Y275196D01*
X154678Y275404D01*
X154650Y275432D01*
X154567Y275487D01*
X154429Y275557D01*
X154248Y275654D01*
X154012Y275737D01*
X153749Y275820D01*
X153430Y275876D01*
X153083Y275890D01*
X152972D01*
X152903Y275876D01*
X152806D01*
X152695Y275862D01*
X152431Y275820D01*
X152140Y275765D01*
X151835Y275668D01*
X151516Y275529D01*
X151225Y275349D01*
X151211D01*
X151197Y275321D01*
X151100Y275252D01*
X150975Y275141D01*
X150823Y274974D01*
X150642Y274766D01*
X150476Y274531D01*
X150323Y274239D01*
X150185Y273920D01*
Y273906D01*
X150171Y273879D01*
X150157Y273837D01*
X150143Y273768D01*
X150115Y273685D01*
X150088Y273587D01*
X150046Y273352D01*
X149991Y273074D01*
X149935Y272769D01*
X149908Y272436D01*
X149894Y272076D01*
Y272062D01*
Y272020D01*
Y271951D01*
Y271868D01*
X149908Y271771D01*
Y271646D01*
X149921Y271507D01*
X149935Y271355D01*
X149977Y271022D01*
X150046Y270661D01*
X150129Y270301D01*
X150240Y269940D01*
Y269926D01*
X150254Y269898D01*
X150282Y269857D01*
X150310Y269788D01*
X150393Y269621D01*
X150518Y269427D01*
X150670Y269205D01*
X150864Y268969D01*
X151086Y268761D01*
X151350Y268567D01*
X151364D01*
X151391Y268553D01*
X151433Y268526D01*
X151489Y268498D01*
X151558Y268470D01*
X151641Y268428D01*
X151835Y268345D01*
X152085Y268262D01*
X152362Y268193D01*
X152667Y268137D01*
X152986Y268123D01*
X153083D01*
X153167Y268137D01*
X153264D01*
X153361Y268151D01*
X153610Y268207D01*
X153902Y268276D01*
X154193Y268387D01*
X154498Y268539D01*
X154650Y268623D01*
X154789Y268734D01*
X154803Y268747D01*
X154817Y268761D01*
X154859Y268803D01*
X154914Y268845D01*
X154970Y268914D01*
X155039Y268997D01*
X155122Y269080D01*
X155191Y269191D01*
X155275Y269316D01*
X155372Y269455D01*
X155455Y269593D01*
X155538Y269760D01*
X155607Y269940D01*
X155677Y270134D01*
X155746Y270342D01*
X155802Y270564D01*
X157078Y270245D01*
Y270231D01*
X157064Y270176D01*
X157036Y270093D01*
X156994Y269982D01*
X156953Y269857D01*
X156897Y269704D01*
X156828Y269538D01*
X156745Y269358D01*
X156551Y268969D01*
X156301Y268581D01*
X156148Y268387D01*
X155996Y268193D01*
X155829Y268026D01*
X155635Y267860D01*
X155621Y267846D01*
X155594Y267818D01*
X155524Y267791D01*
X155455Y267735D01*
X155344Y267666D01*
X155233Y267596D01*
X155080Y267527D01*
X154928Y267458D01*
X154748Y267374D01*
X154553Y267305D01*
X154345Y267236D01*
X154123Y267166D01*
X153888Y267111D01*
X153638Y267083D01*
X153375Y267055D01*
X153097Y267042D01*
X152945D01*
X152834Y267055D01*
X152709D01*
X152556Y267069D01*
X152390Y267097D01*
X152196Y267125D01*
X151794Y267194D01*
X151377Y267305D01*
X150962Y267458D01*
X150767Y267555D01*
X150573Y267666D01*
X150559Y267680D01*
X150532Y267693D01*
X150476Y267735D01*
X150421Y267791D01*
X150337Y267846D01*
X150240Y267929D01*
X150129Y268026D01*
X150018Y268137D01*
X149908Y268262D01*
X149783Y268387D01*
X149533Y268706D01*
X149297Y269080D01*
X149089Y269496D01*
Y269510D01*
X149061Y269552D01*
X149048Y269621D01*
X149006Y269704D01*
X148978Y269815D01*
X148937Y269954D01*
X148881Y270107D01*
X148840Y270273D01*
X148798Y270453D01*
X148743Y270661D01*
X148673Y271091D01*
X148618Y271576D01*
X148590Y272076D01*
Y272090D01*
Y272145D01*
Y272228D01*
X148604Y272325D01*
Y272464D01*
X148618Y272603D01*
X148632Y272783D01*
X148659Y272963D01*
X148729Y273366D01*
X148826Y273809D01*
X148964Y274253D01*
X149159Y274683D01*
X149172Y274697D01*
X149186Y274739D01*
X149214Y274794D01*
X149270Y274863D01*
X149325Y274960D01*
X149394Y275071D01*
X149575Y275321D01*
X149810Y275598D01*
X150088Y275876D01*
X150407Y276153D01*
X150781Y276389D01*
X150795Y276403D01*
X150837Y276417D01*
X150892Y276444D01*
X150962Y276486D01*
X151072Y276528D01*
X151183Y276569D01*
X151322Y276625D01*
X151475Y276680D01*
X151641Y276736D01*
X151821Y276791D01*
X152210Y276874D01*
X152653Y276944D01*
X153111Y276971D01*
X153250D01*
X153347Y276957D01*
D02*
G37*
G36*
X162597Y267208D02*
X161418D01*
Y274711D01*
X161404Y274697D01*
X161335Y274641D01*
X161252Y274558D01*
X161113Y274461D01*
X160961Y274336D01*
X160767Y274198D01*
X160545Y274045D01*
X160295Y273893D01*
X160281D01*
X160267Y273879D01*
X160184Y273823D01*
X160045Y273754D01*
X159879Y273671D01*
X159685Y273574D01*
X159477Y273477D01*
X159269Y273379D01*
X159061Y273296D01*
Y274433D01*
X159074D01*
X159102Y274461D01*
X159158Y274475D01*
X159227Y274517D01*
X159310Y274558D01*
X159407Y274614D01*
X159643Y274752D01*
X159921Y274905D01*
X160198Y275099D01*
X160489Y275321D01*
X160780Y275557D01*
X160794Y275571D01*
X160808Y275585D01*
X160850Y275626D01*
X160905Y275668D01*
X161030Y275806D01*
X161196Y275973D01*
X161363Y276167D01*
X161543Y276389D01*
X161696Y276611D01*
X161834Y276847D01*
X162597D01*
Y267208D01*
D02*
G37*
%LPC*%
G36*
X143763Y88455D02*
X140740Y84156D01*
X143763D01*
Y88455D01*
D02*
G37*
G36*
X135109Y89301D02*
X132086D01*
Y86125D01*
X134943D01*
X135109Y86139D01*
X135303Y86153D01*
X135525Y86167D01*
X135747Y86194D01*
X135969Y86236D01*
X136163Y86292D01*
X136191Y86306D01*
X136246Y86333D01*
X136330Y86375D01*
X136441Y86430D01*
X136565Y86514D01*
X136690Y86611D01*
X136815Y86735D01*
X136912Y86874D01*
X136926Y86888D01*
X136954Y86943D01*
X136995Y87027D01*
X137051Y87138D01*
X137092Y87262D01*
X137134Y87401D01*
X137162Y87568D01*
X137176Y87734D01*
Y87748D01*
Y87762D01*
X137162Y87845D01*
X137148Y87970D01*
X137120Y88136D01*
X137051Y88302D01*
X136968Y88497D01*
X136843Y88677D01*
X136676Y88857D01*
X136649Y88871D01*
X136579Y88927D01*
X136468Y88996D01*
X136288Y89079D01*
X136080Y89162D01*
X135803Y89232D01*
X135484Y89287D01*
X135109Y89301D01*
D02*
G37*
G36*
X174987Y89555D02*
X171964D01*
Y86379D01*
X174821D01*
X174987Y86393D01*
X175181Y86407D01*
X175403Y86421D01*
X175625Y86448D01*
X175847Y86490D01*
X176041Y86546D01*
X176069Y86559D01*
X176124Y86587D01*
X176208Y86629D01*
X176319Y86684D01*
X176443Y86768D01*
X176568Y86865D01*
X176693Y86989D01*
X176790Y87128D01*
X176804Y87142D01*
X176832Y87197D01*
X176873Y87281D01*
X176929Y87392D01*
X176970Y87516D01*
X177012Y87655D01*
X177040Y87822D01*
X177054Y87988D01*
Y88002D01*
Y88016D01*
X177040Y88099D01*
X177026Y88224D01*
X176998Y88390D01*
X176929Y88556D01*
X176846Y88751D01*
X176721Y88931D01*
X176554Y89111D01*
X176527Y89125D01*
X176457Y89181D01*
X176346Y89250D01*
X176166Y89333D01*
X175958Y89416D01*
X175681Y89486D01*
X175362Y89541D01*
X174987Y89555D01*
D02*
G37*
G36*
X94977Y89301D02*
X91954D01*
Y86125D01*
X94811D01*
X94977Y86139D01*
X95171Y86153D01*
X95393Y86167D01*
X95615Y86194D01*
X95837Y86236D01*
X96031Y86292D01*
X96059Y86306D01*
X96114Y86333D01*
X96198Y86375D01*
X96309Y86430D01*
X96433Y86514D01*
X96558Y86611D01*
X96683Y86735D01*
X96780Y86874D01*
X96794Y86888D01*
X96822Y86943D01*
X96863Y87027D01*
X96919Y87138D01*
X96960Y87262D01*
X97002Y87401D01*
X97030Y87568D01*
X97044Y87734D01*
Y87748D01*
Y87762D01*
X97030Y87845D01*
X97016Y87970D01*
X96988Y88136D01*
X96919Y88302D01*
X96836Y88497D01*
X96711Y88677D01*
X96544Y88857D01*
X96517Y88871D01*
X96447Y88927D01*
X96336Y88996D01*
X96156Y89079D01*
X95948Y89162D01*
X95671Y89232D01*
X95352Y89287D01*
X94977Y89301D01*
D02*
G37*
G36*
X215119D02*
X212096D01*
Y86125D01*
X214953D01*
X215119Y86139D01*
X215313Y86153D01*
X215535Y86167D01*
X215757Y86194D01*
X215979Y86236D01*
X216173Y86292D01*
X216201Y86306D01*
X216256Y86333D01*
X216340Y86375D01*
X216451Y86430D01*
X216575Y86514D01*
X216700Y86611D01*
X216825Y86735D01*
X216922Y86874D01*
X216936Y86888D01*
X216964Y86943D01*
X217005Y87027D01*
X217061Y87138D01*
X217102Y87262D01*
X217144Y87401D01*
X217172Y87568D01*
X217186Y87734D01*
Y87748D01*
Y87762D01*
X217172Y87845D01*
X217158Y87970D01*
X217130Y88136D01*
X217061Y88302D01*
X216978Y88497D01*
X216853Y88677D01*
X216686Y88857D01*
X216659Y88871D01*
X216589Y88927D01*
X216478Y88996D01*
X216298Y89079D01*
X216090Y89162D01*
X215813Y89232D01*
X215494Y89287D01*
X215119Y89301D01*
D02*
G37*
G36*
X86290Y204160D02*
X86152D01*
X86054Y204147D01*
X85930Y204133D01*
X85791Y204105D01*
X85638Y204077D01*
X85472Y204036D01*
X85278Y203980D01*
X85098Y203925D01*
X84903Y203842D01*
X84695Y203745D01*
X84501Y203633D01*
X84307Y203495D01*
X84113Y203356D01*
X83933Y203176D01*
X83919Y203162D01*
X83891Y203134D01*
X83849Y203079D01*
X83794Y202996D01*
X83711Y202899D01*
X83641Y202774D01*
X83558Y202621D01*
X83475Y202455D01*
X83378Y202261D01*
X83295Y202039D01*
X83225Y201803D01*
X83156Y201539D01*
X83087Y201262D01*
X83045Y200957D01*
X83017Y200624D01*
X83003Y200277D01*
Y200250D01*
Y200194D01*
Y200097D01*
X83017Y199972D01*
X83031Y199820D01*
X83059Y199639D01*
X83087Y199431D01*
X83114Y199223D01*
X83225Y198752D01*
X83295Y198516D01*
X83392Y198280D01*
X83489Y198045D01*
X83614Y197823D01*
X83752Y197601D01*
X83919Y197407D01*
X83933Y197393D01*
X83960Y197365D01*
X84016Y197309D01*
X84085Y197254D01*
X84182Y197171D01*
X84293Y197088D01*
X84418Y197004D01*
X84571Y196907D01*
X84723Y196810D01*
X84903Y196727D01*
X85098Y196644D01*
X85306Y196561D01*
X85541Y196505D01*
X85777Y196450D01*
X86027Y196422D01*
X86290Y196408D01*
X86415D01*
X86540Y196422D01*
X86706Y196436D01*
X86914Y196464D01*
X87122Y196519D01*
X87358Y196574D01*
X87580Y196658D01*
X87552Y196672D01*
X87483Y196727D01*
X87358Y196796D01*
X87205Y196880D01*
X87011Y196963D01*
X86803Y197060D01*
X86568Y197143D01*
X86318Y197213D01*
X86637Y198128D01*
X86651D01*
X86692Y198114D01*
X86748Y198100D01*
X86817Y198072D01*
X86914Y198045D01*
X87025Y198003D01*
X87275Y197906D01*
X87566Y197767D01*
X87871Y197615D01*
X88162Y197434D01*
X88454Y197213D01*
X88468Y197226D01*
X88509Y197254D01*
X88565Y197323D01*
X88634Y197407D01*
X88717Y197518D01*
X88814Y197642D01*
X88911Y197795D01*
X89022Y197975D01*
X89119Y198183D01*
X89216Y198419D01*
X89313Y198669D01*
X89397Y198932D01*
X89480Y199237D01*
X89535Y199556D01*
X89563Y199903D01*
X89577Y200277D01*
Y200291D01*
Y200333D01*
Y200388D01*
Y200471D01*
X89563Y200583D01*
Y200693D01*
X89549Y200832D01*
X89522Y200971D01*
X89480Y201290D01*
X89411Y201637D01*
X89313Y201983D01*
X89175Y202316D01*
Y202330D01*
X89161Y202358D01*
X89133Y202399D01*
X89106Y202455D01*
X89008Y202621D01*
X88884Y202815D01*
X88717Y203037D01*
X88509Y203259D01*
X88273Y203481D01*
X88010Y203675D01*
X87996D01*
X87982Y203703D01*
X87941Y203717D01*
X87871Y203758D01*
X87802Y203786D01*
X87719Y203828D01*
X87511Y203925D01*
X87261Y204008D01*
X86970Y204091D01*
X86637Y204147D01*
X86290Y204160D01*
D02*
G37*
G36*
X257171Y214160D02*
X257032D01*
X256935Y214147D01*
X256810Y214133D01*
X256672Y214105D01*
X256519Y214077D01*
X256353Y214036D01*
X256158Y213980D01*
X255978Y213925D01*
X255784Y213842D01*
X255576Y213745D01*
X255382Y213633D01*
X255188Y213495D01*
X254993Y213356D01*
X254813Y213176D01*
X254799Y213162D01*
X254772Y213134D01*
X254730Y213079D01*
X254674Y212996D01*
X254591Y212899D01*
X254522Y212774D01*
X254439Y212621D01*
X254356Y212455D01*
X254258Y212261D01*
X254175Y212039D01*
X254106Y211803D01*
X254037Y211539D01*
X253967Y211262D01*
X253926Y210957D01*
X253898Y210624D01*
X253884Y210277D01*
Y210250D01*
Y210194D01*
Y210097D01*
X253898Y209972D01*
X253912Y209820D01*
X253939Y209639D01*
X253967Y209431D01*
X253995Y209223D01*
X254106Y208752D01*
X254175Y208516D01*
X254272Y208280D01*
X254369Y208045D01*
X254494Y207823D01*
X254633Y207601D01*
X254799Y207407D01*
X254813Y207393D01*
X254841Y207365D01*
X254896Y207309D01*
X254966Y207254D01*
X255063Y207171D01*
X255174Y207088D01*
X255299Y207004D01*
X255451Y206907D01*
X255604Y206810D01*
X255784Y206727D01*
X255978Y206644D01*
X256186Y206561D01*
X256422Y206505D01*
X256658Y206450D01*
X256907Y206422D01*
X257171Y206408D01*
X257296D01*
X257421Y206422D01*
X257587Y206436D01*
X257795Y206464D01*
X258003Y206519D01*
X258239Y206574D01*
X258461Y206658D01*
X258433Y206672D01*
X258363Y206727D01*
X258239Y206796D01*
X258086Y206880D01*
X257892Y206963D01*
X257684Y207060D01*
X257448Y207143D01*
X257199Y207213D01*
X257518Y208128D01*
X257531D01*
X257573Y208114D01*
X257628Y208100D01*
X257698Y208072D01*
X257795Y208045D01*
X257906Y208003D01*
X258155Y207906D01*
X258447Y207767D01*
X258752Y207615D01*
X259043Y207434D01*
X259334Y207213D01*
X259348Y207226D01*
X259390Y207254D01*
X259445Y207323D01*
X259515Y207407D01*
X259598Y207518D01*
X259695Y207642D01*
X259792Y207795D01*
X259903Y207975D01*
X260000Y208183D01*
X260097Y208419D01*
X260194Y208669D01*
X260277Y208932D01*
X260361Y209237D01*
X260416Y209556D01*
X260444Y209903D01*
X260458Y210277D01*
Y210291D01*
Y210333D01*
Y210388D01*
Y210471D01*
X260444Y210583D01*
Y210693D01*
X260430Y210832D01*
X260402Y210971D01*
X260361Y211290D01*
X260291Y211637D01*
X260194Y211983D01*
X260056Y212316D01*
Y212330D01*
X260042Y212358D01*
X260014Y212399D01*
X259986Y212455D01*
X259889Y212621D01*
X259764Y212815D01*
X259598Y213037D01*
X259390Y213259D01*
X259154Y213481D01*
X258890Y213675D01*
X258877D01*
X258863Y213703D01*
X258821Y213717D01*
X258752Y213758D01*
X258682Y213786D01*
X258599Y213828D01*
X258391Y213925D01*
X258142Y214008D01*
X257850Y214091D01*
X257518Y214147D01*
X257171Y214160D01*
D02*
G37*
G36*
X38820Y180672D02*
X36074D01*
Y177246D01*
X38653D01*
X38751Y177260D01*
X38848D01*
X38958Y177274D01*
X39222Y177302D01*
X39513Y177357D01*
X39804Y177440D01*
X40068Y177551D01*
X40193Y177621D01*
X40290Y177704D01*
X40318Y177732D01*
X40373Y177787D01*
X40456Y177898D01*
X40553Y178037D01*
X40651Y178217D01*
X40734Y178439D01*
X40789Y178689D01*
X40817Y178980D01*
Y178994D01*
Y179007D01*
Y179077D01*
X40803Y179202D01*
X40775Y179340D01*
X40747Y179493D01*
X40692Y179673D01*
X40609Y179840D01*
X40512Y180006D01*
X40498Y180020D01*
X40456Y180075D01*
X40387Y180145D01*
X40304Y180242D01*
X40179Y180339D01*
X40040Y180422D01*
X39888Y180505D01*
X39707Y180575D01*
X39694D01*
X39638Y180588D01*
X39555Y180602D01*
X39444Y180630D01*
X39278Y180644D01*
X39069Y180658D01*
X38820Y180672D01*
D02*
G37*
%LPD*%
D10*
X76649Y220661D02*
G03*
X76645Y259337I13352J19339D01*
G01*
X243351Y259339D02*
G03*
X243355Y220664I-13352J-19339D01*
G01*
X76650D02*
Y259337D01*
X243350Y220664D02*
Y259337D01*
X145709Y180709D02*
X174291D01*
X145709Y199291D02*
X174291D01*
X37300Y110000D02*
Y164600D01*
Y110000D02*
X62700D01*
Y164600D01*
X37300D02*
X62700D01*
X169291Y227450D02*
Y256033D01*
X150709Y227450D02*
Y256033D01*
D11*
X91250Y269500D02*
G03*
X91250Y269500I-1250J0D01*
G01*
X231250Y210500D02*
G03*
X231250Y210500I-1250J0D01*
G01*
M02*
