G04*
G04 #@! TF.GenerationSoftware,Altium Limited,Altium Designer,25.2.1 (25)*
G04*
G04 Layer_Color=16711935*
%FSLAX44Y44*%
%MOMM*%
G71*
G04*
G04 #@! TF.SameCoordinates,812CEA7C-EAD6-410B-90F9-CE58292C2D17*
G04*
G04*
G04 #@! TF.FilePolarity,Positive*
G04*
G01*
G75*
%ADD10C,0.2000*%
G36*
X157171Y189991D02*
X157254D01*
X157356Y189982D01*
X157467Y189963D01*
X157596Y189945D01*
X157864Y189898D01*
X158142Y189824D01*
X158419Y189723D01*
X158549Y189658D01*
X158678Y189584D01*
X158687Y189575D01*
X158706Y189566D01*
X158743Y189538D01*
X158780Y189501D01*
X158835Y189464D01*
X158900Y189408D01*
X158974Y189344D01*
X159048Y189270D01*
X159122Y189186D01*
X159205Y189103D01*
X159371Y188891D01*
X159529Y188641D01*
X159667Y188364D01*
Y188354D01*
X159686Y188327D01*
X159695Y188280D01*
X159723Y188225D01*
X159741Y188151D01*
X159769Y188058D01*
X159806Y187957D01*
X159834Y187846D01*
X159861Y187726D01*
X159898Y187587D01*
X159945Y187300D01*
X159982Y186977D01*
X160000Y186644D01*
Y186635D01*
Y186598D01*
Y186542D01*
X159991Y186478D01*
Y186385D01*
X159982Y186293D01*
X159972Y186172D01*
X159954Y186052D01*
X159908Y185784D01*
X159843Y185488D01*
X159750Y185192D01*
X159621Y184906D01*
X159612Y184897D01*
X159603Y184869D01*
X159584Y184832D01*
X159547Y184786D01*
X159510Y184721D01*
X159464Y184647D01*
X159344Y184480D01*
X159186Y184296D01*
X159002Y184111D01*
X158789Y183926D01*
X158539Y183769D01*
X158530Y183759D01*
X158502Y183750D01*
X158465Y183732D01*
X158419Y183704D01*
X158345Y183676D01*
X158271Y183648D01*
X158179Y183611D01*
X158077Y183574D01*
X157966Y183537D01*
X157846Y183500D01*
X157587Y183445D01*
X157291Y183399D01*
X156986Y183380D01*
X156894D01*
X156829Y183389D01*
X156746Y183399D01*
X156644Y183408D01*
X156542Y183417D01*
X156422Y183445D01*
X156173Y183500D01*
X155895Y183584D01*
X155756Y183639D01*
X155627Y183704D01*
X155498Y183787D01*
X155368Y183870D01*
X155359Y183880D01*
X155340Y183889D01*
X155303Y183916D01*
X155257Y183963D01*
X155211Y184009D01*
X155146Y184074D01*
X155082Y184148D01*
X155007Y184222D01*
X154934Y184314D01*
X154860Y184425D01*
X154776Y184536D01*
X154702Y184656D01*
X154638Y184795D01*
X154564Y184933D01*
X154508Y185081D01*
X154453Y185248D01*
X155285Y185442D01*
Y185433D01*
X155294Y185414D01*
X155313Y185377D01*
X155331Y185331D01*
X155350Y185276D01*
X155377Y185202D01*
X155451Y185054D01*
X155544Y184887D01*
X155655Y184721D01*
X155793Y184564D01*
X155941Y184425D01*
X155960Y184407D01*
X156015Y184370D01*
X156108Y184323D01*
X156228Y184259D01*
X156385Y184203D01*
X156561Y184148D01*
X156773Y184111D01*
X157005Y184101D01*
X157079D01*
X157125Y184111D01*
X157190D01*
X157263Y184120D01*
X157439Y184148D01*
X157633Y184185D01*
X157837Y184249D01*
X158049Y184342D01*
X158244Y184462D01*
X158253D01*
X158262Y184480D01*
X158327Y184527D01*
X158410Y184601D01*
X158512Y184712D01*
X158632Y184850D01*
X158743Y185007D01*
X158844Y185202D01*
X158937Y185414D01*
Y185424D01*
X158946Y185442D01*
X158955Y185470D01*
X158965Y185516D01*
X158983Y185571D01*
X159002Y185636D01*
X159029Y185793D01*
X159066Y185978D01*
X159103Y186182D01*
X159122Y186404D01*
X159131Y186644D01*
Y186653D01*
Y186681D01*
Y186727D01*
Y186783D01*
X159122Y186847D01*
Y186931D01*
X159113Y187023D01*
X159103Y187125D01*
X159076Y187347D01*
X159029Y187587D01*
X158974Y187827D01*
X158900Y188068D01*
Y188077D01*
X158891Y188095D01*
X158872Y188123D01*
X158854Y188169D01*
X158798Y188280D01*
X158715Y188410D01*
X158613Y188558D01*
X158484Y188715D01*
X158336Y188854D01*
X158160Y188983D01*
X158151D01*
X158132Y188992D01*
X158105Y189011D01*
X158068Y189029D01*
X158022Y189048D01*
X157966Y189076D01*
X157837Y189131D01*
X157670Y189186D01*
X157485Y189233D01*
X157282Y189270D01*
X157069Y189279D01*
X157005D01*
X156949Y189270D01*
X156884D01*
X156820Y189261D01*
X156653Y189223D01*
X156459Y189177D01*
X156265Y189103D01*
X156061Y189002D01*
X155960Y188946D01*
X155867Y188872D01*
X155858Y188863D01*
X155849Y188854D01*
X155821Y188826D01*
X155784Y188798D01*
X155747Y188752D01*
X155701Y188696D01*
X155646Y188641D01*
X155599Y188567D01*
X155544Y188484D01*
X155479Y188391D01*
X155424Y188299D01*
X155368Y188188D01*
X155322Y188068D01*
X155276Y187938D01*
X155229Y187800D01*
X155192Y187652D01*
X154342Y187864D01*
Y187874D01*
X154351Y187911D01*
X154370Y187966D01*
X154397Y188040D01*
X154425Y188123D01*
X154462Y188225D01*
X154508Y188336D01*
X154564Y188456D01*
X154693Y188715D01*
X154860Y188974D01*
X154961Y189103D01*
X155063Y189233D01*
X155174Y189344D01*
X155303Y189455D01*
X155313Y189464D01*
X155331Y189482D01*
X155377Y189501D01*
X155424Y189538D01*
X155498Y189584D01*
X155571Y189630D01*
X155673Y189676D01*
X155775Y189723D01*
X155895Y189778D01*
X156025Y189824D01*
X156163Y189871D01*
X156311Y189917D01*
X156468Y189954D01*
X156635Y189972D01*
X156810Y189991D01*
X156995Y190000D01*
X157097D01*
X157171Y189991D01*
D02*
G37*
G36*
X153732Y189880D02*
Y189843D01*
Y189788D01*
X153722Y189713D01*
X153713Y189630D01*
X153695Y189538D01*
X153676Y189445D01*
X153639Y189344D01*
Y189334D01*
X153630Y189325D01*
X153611Y189270D01*
X153574Y189186D01*
X153519Y189076D01*
X153445Y188946D01*
X153353Y188798D01*
X153251Y188650D01*
X153121Y188493D01*
Y188484D01*
X153103Y188475D01*
X153057Y188419D01*
X152973Y188336D01*
X152853Y188216D01*
X152715Y188077D01*
X152539Y187911D01*
X152326Y187726D01*
X152095Y187532D01*
X152086Y187522D01*
X152049Y187495D01*
X151993Y187448D01*
X151929Y187393D01*
X151846Y187319D01*
X151744Y187236D01*
X151642Y187143D01*
X151522Y187041D01*
X151291Y186820D01*
X151060Y186598D01*
X150949Y186487D01*
X150847Y186376D01*
X150754Y186274D01*
X150681Y186172D01*
Y186163D01*
X150662Y186154D01*
X150644Y186126D01*
X150625Y186089D01*
X150560Y185987D01*
X150486Y185867D01*
X150422Y185719D01*
X150357Y185562D01*
X150320Y185387D01*
X150302Y185220D01*
Y185211D01*
Y185202D01*
X150311Y185146D01*
X150320Y185054D01*
X150348Y184952D01*
X150385Y184823D01*
X150449Y184693D01*
X150533Y184564D01*
X150644Y184434D01*
X150662Y184416D01*
X150708Y184379D01*
X150773Y184333D01*
X150875Y184268D01*
X151004Y184212D01*
X151152Y184157D01*
X151328Y184120D01*
X151522Y184111D01*
X151577D01*
X151614Y184120D01*
X151725Y184129D01*
X151855Y184157D01*
X151993Y184194D01*
X152151Y184259D01*
X152299Y184342D01*
X152437Y184453D01*
X152456Y184471D01*
X152493Y184517D01*
X152548Y184591D01*
X152604Y184702D01*
X152668Y184832D01*
X152724Y184998D01*
X152761Y185183D01*
X152779Y185396D01*
X153584Y185313D01*
Y185303D01*
X153574Y185276D01*
Y185229D01*
X153565Y185165D01*
X153547Y185091D01*
X153528Y185007D01*
X153500Y184906D01*
X153473Y184804D01*
X153399Y184582D01*
X153288Y184360D01*
X153223Y184249D01*
X153140Y184138D01*
X153057Y184037D01*
X152964Y183944D01*
X152955Y183935D01*
X152936Y183926D01*
X152909Y183898D01*
X152863Y183870D01*
X152807Y183833D01*
X152742Y183796D01*
X152668Y183750D01*
X152576Y183704D01*
X152474Y183658D01*
X152363Y183611D01*
X152243Y183574D01*
X152114Y183537D01*
X151975Y183510D01*
X151827Y183482D01*
X151670Y183473D01*
X151503Y183463D01*
X151411D01*
X151346Y183473D01*
X151272Y183482D01*
X151180Y183491D01*
X151078Y183510D01*
X150976Y183528D01*
X150736Y183593D01*
X150496Y183685D01*
X150375Y183741D01*
X150255Y183806D01*
X150144Y183889D01*
X150043Y183981D01*
X150033Y183990D01*
X150015Y184000D01*
X149996Y184037D01*
X149959Y184074D01*
X149913Y184120D01*
X149867Y184185D01*
X149821Y184249D01*
X149765Y184333D01*
X149673Y184508D01*
X149580Y184730D01*
X149543Y184841D01*
X149525Y184970D01*
X149506Y185100D01*
X149497Y185239D01*
Y185257D01*
Y185303D01*
X149506Y185377D01*
X149516Y185479D01*
X149534Y185590D01*
X149571Y185719D01*
X149608Y185858D01*
X149664Y185997D01*
X149673Y186015D01*
X149691Y186061D01*
X149728Y186135D01*
X149784Y186237D01*
X149858Y186348D01*
X149950Y186487D01*
X150061Y186625D01*
X150191Y186783D01*
X150209Y186801D01*
X150255Y186857D01*
X150302Y186903D01*
X150348Y186949D01*
X150403Y187005D01*
X150477Y187078D01*
X150551Y187153D01*
X150644Y187236D01*
X150736Y187328D01*
X150847Y187430D01*
X150967Y187532D01*
X151097Y187652D01*
X151245Y187772D01*
X151392Y187901D01*
X151402Y187911D01*
X151420Y187929D01*
X151457Y187957D01*
X151503Y187994D01*
X151559Y188049D01*
X151624Y188105D01*
X151772Y188225D01*
X151929Y188364D01*
X152077Y188502D01*
X152206Y188622D01*
X152262Y188669D01*
X152308Y188715D01*
X152317Y188724D01*
X152345Y188752D01*
X152382Y188789D01*
X152428Y188844D01*
X152474Y188909D01*
X152530Y188974D01*
X152641Y189131D01*
X149488D01*
Y189889D01*
X153732D01*
Y189880D01*
D02*
G37*
G36*
X163522Y241732D02*
X163615D01*
X163707Y241723D01*
X163828Y241714D01*
X163948Y241695D01*
X164216Y241649D01*
X164512Y241584D01*
X164808Y241492D01*
X165094Y241362D01*
X165103Y241353D01*
X165131Y241344D01*
X165168Y241325D01*
X165214Y241289D01*
X165279Y241252D01*
X165353Y241205D01*
X165520Y241085D01*
X165704Y240928D01*
X165889Y240743D01*
X166074Y240530D01*
X166231Y240281D01*
X166241Y240271D01*
X166250Y240244D01*
X166268Y240207D01*
X166296Y240161D01*
X166324Y240087D01*
X166352Y240013D01*
X166389Y239920D01*
X166426Y239818D01*
X166463Y239708D01*
X166500Y239587D01*
X166555Y239328D01*
X166601Y239033D01*
X166620Y238727D01*
Y238635D01*
X166611Y238570D01*
X166601Y238487D01*
X166592Y238385D01*
X166583Y238284D01*
X166555Y238164D01*
X166500Y237914D01*
X166416Y237637D01*
X166361Y237498D01*
X166296Y237368D01*
X166213Y237239D01*
X166130Y237110D01*
X166120Y237100D01*
X166111Y237082D01*
X166084Y237045D01*
X166037Y236999D01*
X165991Y236952D01*
X165926Y236888D01*
X165852Y236823D01*
X165778Y236749D01*
X165686Y236675D01*
X165575Y236601D01*
X165464Y236518D01*
X165344Y236444D01*
X165205Y236379D01*
X165067Y236305D01*
X164918Y236250D01*
X164752Y236194D01*
X164558Y237026D01*
X164567D01*
X164586Y237036D01*
X164623Y237054D01*
X164669Y237073D01*
X164724Y237091D01*
X164798Y237119D01*
X164946Y237193D01*
X165113Y237285D01*
X165279Y237396D01*
X165436Y237535D01*
X165575Y237683D01*
X165593Y237701D01*
X165630Y237757D01*
X165677Y237849D01*
X165741Y237969D01*
X165797Y238127D01*
X165852Y238302D01*
X165889Y238515D01*
X165899Y238746D01*
Y238820D01*
X165889Y238866D01*
Y238931D01*
X165880Y239005D01*
X165852Y239181D01*
X165815Y239375D01*
X165751Y239578D01*
X165658Y239791D01*
X165538Y239985D01*
Y239994D01*
X165520Y240003D01*
X165473Y240068D01*
X165399Y240151D01*
X165288Y240253D01*
X165150Y240373D01*
X164993Y240484D01*
X164798Y240586D01*
X164586Y240678D01*
X164576D01*
X164558Y240688D01*
X164530Y240697D01*
X164484Y240706D01*
X164429Y240725D01*
X164364Y240743D01*
X164207Y240771D01*
X164022Y240808D01*
X163818Y240845D01*
X163596Y240863D01*
X163356Y240872D01*
X163347D01*
X163319D01*
X163273D01*
X163217D01*
X163153Y240863D01*
X163069D01*
X162977Y240854D01*
X162875Y240845D01*
X162653Y240817D01*
X162413Y240771D01*
X162173Y240715D01*
X161932Y240641D01*
X161923D01*
X161905Y240632D01*
X161877Y240614D01*
X161831Y240595D01*
X161720Y240540D01*
X161590Y240456D01*
X161442Y240355D01*
X161285Y240225D01*
X161146Y240077D01*
X161017Y239902D01*
Y239892D01*
X161008Y239874D01*
X160989Y239846D01*
X160971Y239809D01*
X160952Y239763D01*
X160924Y239708D01*
X160869Y239578D01*
X160814Y239412D01*
X160767Y239227D01*
X160730Y239023D01*
X160721Y238811D01*
Y238746D01*
X160730Y238690D01*
Y238626D01*
X160739Y238561D01*
X160777Y238395D01*
X160823Y238200D01*
X160897Y238006D01*
X160998Y237803D01*
X161054Y237701D01*
X161128Y237609D01*
X161137Y237600D01*
X161146Y237590D01*
X161174Y237563D01*
X161202Y237526D01*
X161248Y237489D01*
X161304Y237442D01*
X161359Y237387D01*
X161433Y237341D01*
X161516Y237285D01*
X161609Y237220D01*
X161701Y237165D01*
X161812Y237110D01*
X161932Y237063D01*
X162062Y237017D01*
X162200Y236971D01*
X162348Y236934D01*
X162136Y236083D01*
X162126D01*
X162089Y236092D01*
X162034Y236111D01*
X161960Y236139D01*
X161877Y236166D01*
X161775Y236203D01*
X161664Y236250D01*
X161544Y236305D01*
X161285Y236435D01*
X161026Y236601D01*
X160897Y236703D01*
X160767Y236804D01*
X160656Y236915D01*
X160545Y237045D01*
X160536Y237054D01*
X160518Y237073D01*
X160499Y237119D01*
X160462Y237165D01*
X160416Y237239D01*
X160370Y237313D01*
X160324Y237415D01*
X160277Y237516D01*
X160222Y237637D01*
X160175Y237766D01*
X160129Y237905D01*
X160083Y238053D01*
X160046Y238210D01*
X160028Y238376D01*
X160009Y238552D01*
X160000Y238737D01*
Y238838D01*
X160009Y238912D01*
Y238996D01*
X160018Y239097D01*
X160037Y239208D01*
X160055Y239338D01*
X160102Y239606D01*
X160175Y239883D01*
X160277Y240161D01*
X160342Y240290D01*
X160416Y240419D01*
X160425Y240429D01*
X160434Y240447D01*
X160462Y240484D01*
X160499Y240521D01*
X160536Y240577D01*
X160592Y240641D01*
X160656Y240715D01*
X160730Y240789D01*
X160814Y240863D01*
X160897Y240946D01*
X161109Y241113D01*
X161359Y241270D01*
X161636Y241409D01*
X161646D01*
X161673Y241427D01*
X161720Y241436D01*
X161775Y241464D01*
X161849Y241483D01*
X161942Y241510D01*
X162043Y241547D01*
X162154Y241575D01*
X162274Y241603D01*
X162413Y241640D01*
X162700Y241686D01*
X163023Y241723D01*
X163356Y241742D01*
X163365D01*
X163402D01*
X163458D01*
X163522Y241732D01*
D02*
G37*
G36*
X164928Y234752D02*
X164946Y234733D01*
X164956Y234696D01*
X164983Y234650D01*
X165011Y234595D01*
X165048Y234530D01*
X165140Y234373D01*
X165242Y234188D01*
X165372Y234003D01*
X165520Y233809D01*
X165677Y233615D01*
X165686Y233605D01*
X165695Y233596D01*
X165723Y233568D01*
X165751Y233531D01*
X165843Y233448D01*
X165954Y233337D01*
X166084Y233226D01*
X166231Y233106D01*
X166379Y233004D01*
X166537Y232912D01*
Y232404D01*
X160111D01*
Y233189D01*
X165113D01*
X165103Y233199D01*
X165067Y233245D01*
X165011Y233300D01*
X164946Y233393D01*
X164863Y233494D01*
X164771Y233624D01*
X164669Y233772D01*
X164567Y233938D01*
Y233948D01*
X164558Y233957D01*
X164521Y234012D01*
X164475Y234105D01*
X164419Y234216D01*
X164355Y234345D01*
X164290Y234484D01*
X164225Y234622D01*
X164170Y234761D01*
X164928D01*
Y234752D01*
D02*
G37*
D10*
X179291Y179709D02*
Y200291D01*
X140709D02*
X179291D01*
X140709Y179709D02*
Y200291D01*
Y179709D02*
X179291D01*
X149709Y261033D02*
X170291D01*
X149709Y222450D02*
Y261033D01*
Y222450D02*
X170291D01*
Y261033D01*
M02*
