G04*
G04 #@! TF.GenerationSoftware,Altium Limited,Altium Designer,25.2.1 (25)*
G04*
G04 Layer_Color=16711935*
%FSLAX44Y44*%
%MOMM*%
G71*
G04*
G04 #@! TF.SameCoordinates,812CEA7C-EAD6-410B-90F9-CE58292C2D17*
G04*
G04*
G04 #@! TF.FilePolarity,Positive*
G04*
G01*
G75*
%ADD10C,0.2000*%
%ADD23C,0.1000*%
D10*
X168000Y186000D02*
Y194000D01*
X152000D02*
X168000D01*
X152000Y186000D02*
Y194000D01*
Y186000D02*
X168000D01*
X156000Y249741D02*
X164000D01*
X156000Y233741D02*
Y249741D01*
Y233741D02*
X164000D01*
Y249741D01*
D23*
X76649Y220661D02*
G03*
X76645Y259337I13352J19339D01*
G01*
X243351Y259339D02*
G03*
X243355Y220664I-13352J-19339D01*
G01*
X76650D02*
Y259337D01*
X243350Y220664D02*
Y259337D01*
X216750Y65000D02*
X231250D01*
X216750Y43000D02*
X231250D01*
Y65000D01*
X216750Y43000D02*
Y65000D01*
X96749D02*
X111250D01*
X96749Y43000D02*
X111250D01*
Y65000D01*
X96749Y43000D02*
Y65000D01*
X136750D02*
X151250D01*
X136750Y43000D02*
X151250D01*
Y65000D01*
X136750Y43000D02*
Y65000D01*
X176750D02*
X191250D01*
X176750Y43000D02*
X191250D01*
Y65000D01*
X176750Y43000D02*
Y65000D01*
X37300Y110000D02*
Y164600D01*
Y110000D02*
X62700D01*
Y164600D01*
X37300D02*
X62700D01*
M02*
