G04*
G04 #@! TF.GenerationSoftware,Altium Limited,Altium Designer,25.2.1 (25)*
G04*
G04 Layer_Color=16711935*
%FSLAX44Y44*%
%MOMM*%
G71*
G04*
G04 #@! TF.SameCoordinates,E59C81FF-183B-4B4C-A30A-65E7F72278B8*
G04*
G04*
G04 #@! TF.FilePolarity,Positive*
G04*
G01*
G75*
%ADD10C,0.2000*%
%ADD22C,0.1000*%
D10*
X162000Y166000D02*
Y174000D01*
Y166000D02*
X178000D01*
Y174000D01*
X162000D02*
X178000D01*
Y206000D02*
Y214000D01*
X162000D02*
X178000D01*
X162000Y206000D02*
Y214000D01*
Y206000D02*
X178000D01*
D22*
X226649Y200661D02*
G03*
X226645Y239337I13352J19339D01*
G01*
X103351Y242039D02*
G03*
X103355Y203363I-13352J-19339D01*
G01*
X242750Y91000D02*
X257250D01*
X242750Y69000D02*
X257250D01*
Y91000D01*
X242750Y69000D02*
Y91000D01*
X182750D02*
X197250D01*
X182750Y69000D02*
X197250D01*
Y91000D01*
X182750Y69000D02*
Y91000D01*
X132750D02*
X147250D01*
X132750Y69000D02*
X147250D01*
Y91000D01*
X132750Y69000D02*
Y91000D01*
X92750D02*
X107250D01*
X92750Y69000D02*
X107250D01*
Y91000D01*
X92750Y69000D02*
Y91000D01*
X17300Y110000D02*
Y164600D01*
Y110000D02*
X42700D01*
Y164600D01*
X17300D02*
X42700D01*
X226650Y200663D02*
Y239337D01*
X103350Y203363D02*
Y242036D01*
M02*
