G04*
G04 #@! TF.GenerationSoftware,Altium Limited,Altium Designer,25.2.1 (25)*
G04*
G04 Layer_Color=65535*
%FSLAX44Y44*%
%MOMM*%
G71*
G04*
G04 #@! TF.SameCoordinates,E59C81FF-183B-4B4C-A30A-65E7F72278B8*
G04*
G04*
G04 #@! TF.FilePolarity,Positive*
G04*
G01*
G75*
%ADD10C,0.2000*%
%ADD11C,0.2500*%
G36*
X190916Y110318D02*
X192220D01*
Y109236D01*
X190916D01*
Y106934D01*
X189737D01*
Y109236D01*
X185563D01*
Y110318D01*
X189959Y116531D01*
X190916D01*
Y110318D01*
D02*
G37*
G36*
X181347Y116517D02*
X181472D01*
X181763Y116503D01*
X182068Y116462D01*
X182401Y116420D01*
X182706Y116351D01*
X182858Y116309D01*
X182983Y116267D01*
X182997D01*
X183011Y116254D01*
X183094Y116212D01*
X183219Y116157D01*
X183372Y116059D01*
X183538Y115935D01*
X183718Y115768D01*
X183885Y115574D01*
X184051Y115352D01*
Y115338D01*
X184065Y115324D01*
X184120Y115241D01*
X184176Y115103D01*
X184259Y114922D01*
X184328Y114714D01*
X184398Y114465D01*
X184439Y114201D01*
X184453Y113910D01*
Y113896D01*
Y113868D01*
Y113813D01*
X184439Y113743D01*
Y113646D01*
X184426Y113549D01*
X184370Y113314D01*
X184287Y113036D01*
X184176Y112745D01*
X184009Y112454D01*
X183899Y112315D01*
X183787Y112176D01*
X183774Y112162D01*
X183760Y112149D01*
X183718Y112107D01*
X183663Y112065D01*
X183593Y112010D01*
X183510Y111954D01*
X183399Y111885D01*
X183288Y111802D01*
X183150Y111733D01*
X182997Y111663D01*
X182831Y111580D01*
X182650Y111511D01*
X182442Y111455D01*
X182234Y111386D01*
X181999Y111344D01*
X181749Y111302D01*
X181777Y111289D01*
X181832Y111261D01*
X181915Y111206D01*
X182026Y111150D01*
X182276Y110997D01*
X182401Y110900D01*
X182512Y110817D01*
X182539Y110789D01*
X182609Y110720D01*
X182720Y110609D01*
X182858Y110470D01*
X183011Y110276D01*
X183191Y110068D01*
X183372Y109819D01*
X183566Y109541D01*
X185216Y106934D01*
X183635D01*
X182373Y108931D01*
Y108945D01*
X182345Y108973D01*
X182318Y109014D01*
X182276Y109070D01*
X182179Y109222D01*
X182054Y109416D01*
X181901Y109625D01*
X181749Y109846D01*
X181596Y110054D01*
X181458Y110248D01*
X181444Y110262D01*
X181402Y110318D01*
X181333Y110401D01*
X181236Y110498D01*
X181028Y110706D01*
X180917Y110803D01*
X180806Y110886D01*
X180792Y110900D01*
X180764Y110914D01*
X180709Y110942D01*
X180625Y110984D01*
X180542Y111025D01*
X180445Y111067D01*
X180223Y111136D01*
X180210D01*
X180182Y111150D01*
X180126D01*
X180057Y111164D01*
X179960Y111178D01*
X179849D01*
X179696Y111192D01*
X178060D01*
Y106934D01*
X176784D01*
Y116531D01*
X181236D01*
X181347Y116517D01*
D02*
G37*
G36*
X139228Y116559D02*
X139408Y116531D01*
X139630Y116489D01*
X139879Y116420D01*
X140129Y116337D01*
X140379Y116226D01*
X140393D01*
X140406Y116212D01*
X140490Y116170D01*
X140614Y116087D01*
X140753Y115990D01*
X140920Y115851D01*
X141086Y115699D01*
X141252Y115519D01*
X141391Y115310D01*
X141405Y115283D01*
X141447Y115213D01*
X141502Y115089D01*
X141571Y114936D01*
X141641Y114756D01*
X141696Y114548D01*
X141738Y114312D01*
X141752Y114076D01*
Y114049D01*
Y113965D01*
X141738Y113854D01*
X141710Y113702D01*
X141668Y113521D01*
X141599Y113327D01*
X141516Y113133D01*
X141405Y112939D01*
X141391Y112911D01*
X141349Y112856D01*
X141266Y112759D01*
X141155Y112648D01*
X141017Y112523D01*
X140850Y112384D01*
X140656Y112260D01*
X140420Y112135D01*
X140434D01*
X140462Y112121D01*
X140504Y112107D01*
X140559Y112093D01*
X140711Y112038D01*
X140906Y111954D01*
X141128Y111843D01*
X141349Y111705D01*
X141558Y111524D01*
X141752Y111316D01*
X141765Y111289D01*
X141821Y111206D01*
X141904Y111067D01*
X141987Y110886D01*
X142071Y110665D01*
X142154Y110401D01*
X142209Y110096D01*
X142223Y109763D01*
Y109749D01*
Y109708D01*
Y109638D01*
X142209Y109555D01*
X142195Y109444D01*
X142168Y109319D01*
X142140Y109181D01*
X142112Y109028D01*
X142001Y108695D01*
X141918Y108515D01*
X141835Y108349D01*
X141724Y108168D01*
X141599Y107988D01*
X141460Y107808D01*
X141294Y107641D01*
X141280Y107627D01*
X141252Y107600D01*
X141197Y107558D01*
X141128Y107503D01*
X141044Y107433D01*
X140933Y107364D01*
X140809Y107281D01*
X140656Y107211D01*
X140504Y107128D01*
X140323Y107045D01*
X140143Y106976D01*
X139935Y106906D01*
X139713Y106851D01*
X139477Y106809D01*
X139241Y106781D01*
X138978Y106768D01*
X138853D01*
X138770Y106781D01*
X138659Y106795D01*
X138534Y106809D01*
X138396Y106837D01*
X138243Y106865D01*
X137910Y106948D01*
X137563Y107087D01*
X137383Y107170D01*
X137217Y107267D01*
X137050Y107392D01*
X136884Y107516D01*
X136870Y107530D01*
X136842Y107558D01*
X136801Y107600D01*
X136759Y107655D01*
X136690Y107725D01*
X136620Y107822D01*
X136537Y107919D01*
X136454Y108043D01*
X136371Y108182D01*
X136287Y108321D01*
X136135Y108654D01*
X136010Y109042D01*
X135969Y109250D01*
X135941Y109472D01*
X137120Y109625D01*
Y109611D01*
X137133Y109583D01*
X137147Y109527D01*
X137161Y109458D01*
X137175Y109375D01*
X137203Y109278D01*
X137272Y109070D01*
X137369Y108820D01*
X137494Y108584D01*
X137633Y108362D01*
X137799Y108168D01*
X137827Y108154D01*
X137882Y108099D01*
X137993Y108030D01*
X138132Y107960D01*
X138298Y107877D01*
X138506Y107808D01*
X138742Y107752D01*
X138992Y107738D01*
X139075D01*
X139130Y107752D01*
X139283Y107766D01*
X139477Y107808D01*
X139699Y107877D01*
X139935Y107974D01*
X140171Y108113D01*
X140393Y108307D01*
X140420Y108335D01*
X140490Y108418D01*
X140573Y108543D01*
X140684Y108709D01*
X140795Y108917D01*
X140878Y109153D01*
X140947Y109430D01*
X140975Y109735D01*
Y109749D01*
Y109777D01*
Y109819D01*
X140961Y109874D01*
X140947Y110027D01*
X140906Y110207D01*
X140850Y110429D01*
X140753Y110651D01*
X140614Y110873D01*
X140434Y111081D01*
X140406Y111108D01*
X140337Y111164D01*
X140226Y111247D01*
X140073Y111344D01*
X139879Y111441D01*
X139644Y111524D01*
X139380Y111580D01*
X139089Y111608D01*
X138964D01*
X138867Y111594D01*
X138742Y111580D01*
X138603Y111552D01*
X138437Y111524D01*
X138257Y111483D01*
X138396Y112523D01*
X138465D01*
X138520Y112509D01*
X138701D01*
X138853Y112537D01*
X139033Y112565D01*
X139241Y112606D01*
X139477Y112676D01*
X139699Y112773D01*
X139935Y112897D01*
X139949D01*
X139963Y112911D01*
X140032Y112967D01*
X140129Y113064D01*
X140240Y113189D01*
X140351Y113369D01*
X140448Y113577D01*
X140517Y113813D01*
X140545Y113951D01*
Y114104D01*
Y114118D01*
Y114132D01*
Y114215D01*
X140517Y114326D01*
X140490Y114478D01*
X140434Y114645D01*
X140365Y114825D01*
X140254Y115005D01*
X140101Y115172D01*
X140087Y115186D01*
X140018Y115241D01*
X139921Y115310D01*
X139796Y115394D01*
X139630Y115463D01*
X139436Y115532D01*
X139214Y115588D01*
X138964Y115602D01*
X138853D01*
X138728Y115574D01*
X138562Y115546D01*
X138382Y115491D01*
X138201Y115421D01*
X138007Y115310D01*
X137827Y115172D01*
X137813Y115158D01*
X137758Y115089D01*
X137674Y114992D01*
X137577Y114853D01*
X137480Y114673D01*
X137383Y114451D01*
X137300Y114187D01*
X137244Y113882D01*
X136066Y114090D01*
Y114104D01*
X136079Y114146D01*
X136093Y114201D01*
X136107Y114284D01*
X136135Y114381D01*
X136177Y114492D01*
X136260Y114756D01*
X136398Y115061D01*
X136565Y115366D01*
X136773Y115657D01*
X137036Y115921D01*
X137050Y115935D01*
X137078Y115948D01*
X137120Y115976D01*
X137175Y116018D01*
X137244Y116073D01*
X137341Y116129D01*
X137438Y116184D01*
X137563Y116254D01*
X137841Y116364D01*
X138160Y116475D01*
X138534Y116545D01*
X138728Y116573D01*
X139075D01*
X139228Y116559D01*
D02*
G37*
G36*
X131309Y116517D02*
X131433D01*
X131725Y116503D01*
X132030Y116462D01*
X132363Y116420D01*
X132668Y116351D01*
X132820Y116309D01*
X132945Y116267D01*
X132959D01*
X132973Y116254D01*
X133056Y116212D01*
X133181Y116157D01*
X133334Y116059D01*
X133500Y115935D01*
X133680Y115768D01*
X133847Y115574D01*
X134013Y115352D01*
Y115338D01*
X134027Y115324D01*
X134082Y115241D01*
X134138Y115103D01*
X134221Y114922D01*
X134290Y114714D01*
X134360Y114465D01*
X134401Y114201D01*
X134415Y113910D01*
Y113896D01*
Y113868D01*
Y113813D01*
X134401Y113743D01*
Y113646D01*
X134388Y113549D01*
X134332Y113314D01*
X134249Y113036D01*
X134138Y112745D01*
X133971Y112454D01*
X133861Y112315D01*
X133750Y112176D01*
X133736Y112162D01*
X133722Y112149D01*
X133680Y112107D01*
X133625Y112065D01*
X133555Y112010D01*
X133472Y111954D01*
X133361Y111885D01*
X133250Y111802D01*
X133112Y111733D01*
X132959Y111663D01*
X132793Y111580D01*
X132612Y111511D01*
X132404Y111455D01*
X132196Y111386D01*
X131960Y111344D01*
X131711Y111302D01*
X131739Y111289D01*
X131794Y111261D01*
X131877Y111206D01*
X131988Y111150D01*
X132238Y110997D01*
X132363Y110900D01*
X132474Y110817D01*
X132501Y110789D01*
X132571Y110720D01*
X132682Y110609D01*
X132820Y110470D01*
X132973Y110276D01*
X133153Y110068D01*
X133334Y109819D01*
X133528Y109541D01*
X135178Y106934D01*
X133597D01*
X132335Y108931D01*
Y108945D01*
X132307Y108973D01*
X132280Y109014D01*
X132238Y109070D01*
X132141Y109222D01*
X132016Y109416D01*
X131863Y109625D01*
X131711Y109846D01*
X131558Y110054D01*
X131420Y110248D01*
X131406Y110262D01*
X131364Y110318D01*
X131295Y110401D01*
X131198Y110498D01*
X130990Y110706D01*
X130879Y110803D01*
X130768Y110886D01*
X130754Y110900D01*
X130726Y110914D01*
X130671Y110942D01*
X130588Y110984D01*
X130504Y111025D01*
X130407Y111067D01*
X130185Y111136D01*
X130171D01*
X130144Y111150D01*
X130088D01*
X130019Y111164D01*
X129922Y111178D01*
X129811D01*
X129658Y111192D01*
X128022D01*
Y106934D01*
X126746D01*
Y116531D01*
X131198D01*
X131309Y116517D01*
D02*
G37*
G36*
X249321Y116559D02*
X249431Y116545D01*
X249570Y116531D01*
X249723Y116503D01*
X249875Y116475D01*
X250236Y116378D01*
X250596Y116240D01*
X250777Y116157D01*
X250957Y116059D01*
X251123Y115935D01*
X251276Y115796D01*
X251290Y115782D01*
X251318Y115768D01*
X251345Y115713D01*
X251401Y115657D01*
X251470Y115588D01*
X251539Y115491D01*
X251609Y115394D01*
X251692Y115269D01*
X251831Y115005D01*
X251969Y114673D01*
X252025Y114506D01*
X252053Y114312D01*
X252080Y114118D01*
X252094Y113910D01*
Y113882D01*
Y113813D01*
X252080Y113702D01*
X252066Y113549D01*
X252039Y113383D01*
X251983Y113189D01*
X251928Y112981D01*
X251845Y112773D01*
X251831Y112745D01*
X251803Y112676D01*
X251747Y112565D01*
X251664Y112412D01*
X251553Y112246D01*
X251415Y112038D01*
X251248Y111830D01*
X251054Y111594D01*
X251026Y111566D01*
X250957Y111483D01*
X250888Y111413D01*
X250818Y111344D01*
X250735Y111261D01*
X250624Y111150D01*
X250513Y111039D01*
X250375Y110914D01*
X250236Y110775D01*
X250069Y110623D01*
X249889Y110470D01*
X249695Y110290D01*
X249473Y110110D01*
X249251Y109916D01*
X249237Y109902D01*
X249210Y109874D01*
X249154Y109832D01*
X249085Y109777D01*
X249002Y109694D01*
X248904Y109611D01*
X248683Y109430D01*
X248447Y109222D01*
X248225Y109014D01*
X248031Y108834D01*
X247948Y108765D01*
X247878Y108695D01*
X247864Y108681D01*
X247823Y108640D01*
X247767Y108584D01*
X247698Y108501D01*
X247629Y108404D01*
X247545Y108307D01*
X247379Y108071D01*
X252108D01*
Y106934D01*
X245742D01*
Y106948D01*
Y107003D01*
Y107087D01*
X245756Y107198D01*
X245770Y107322D01*
X245798Y107461D01*
X245826Y107600D01*
X245881Y107752D01*
Y107766D01*
X245895Y107780D01*
X245923Y107863D01*
X245978Y107988D01*
X246061Y108154D01*
X246172Y108349D01*
X246311Y108570D01*
X246464Y108792D01*
X246658Y109028D01*
Y109042D01*
X246686Y109056D01*
X246755Y109139D01*
X246880Y109264D01*
X247060Y109444D01*
X247268Y109652D01*
X247532Y109902D01*
X247850Y110179D01*
X248197Y110470D01*
X248211Y110484D01*
X248267Y110526D01*
X248350Y110595D01*
X248447Y110679D01*
X248572Y110789D01*
X248724Y110914D01*
X248877Y111053D01*
X249057Y111206D01*
X249404Y111538D01*
X249750Y111871D01*
X249917Y112038D01*
X250069Y112204D01*
X250208Y112357D01*
X250319Y112509D01*
Y112523D01*
X250347Y112537D01*
X250375Y112578D01*
X250402Y112634D01*
X250499Y112787D01*
X250610Y112967D01*
X250707Y113189D01*
X250804Y113424D01*
X250860Y113688D01*
X250888Y113938D01*
Y113951D01*
Y113965D01*
X250874Y114049D01*
X250860Y114187D01*
X250818Y114340D01*
X250763Y114534D01*
X250666Y114728D01*
X250541Y114922D01*
X250375Y115116D01*
X250347Y115144D01*
X250277Y115200D01*
X250180Y115269D01*
X250028Y115366D01*
X249834Y115449D01*
X249612Y115532D01*
X249348Y115588D01*
X249057Y115602D01*
X248974D01*
X248918Y115588D01*
X248752Y115574D01*
X248558Y115532D01*
X248350Y115477D01*
X248114Y115380D01*
X247892Y115255D01*
X247684Y115089D01*
X247656Y115061D01*
X247601Y114992D01*
X247518Y114881D01*
X247434Y114714D01*
X247337Y114520D01*
X247254Y114270D01*
X247199Y113993D01*
X247171Y113674D01*
X245964Y113799D01*
Y113813D01*
X245978Y113854D01*
Y113924D01*
X245992Y114021D01*
X246020Y114132D01*
X246048Y114256D01*
X246089Y114409D01*
X246131Y114562D01*
X246242Y114895D01*
X246408Y115227D01*
X246505Y115394D01*
X246630Y115560D01*
X246755Y115713D01*
X246894Y115851D01*
X246907Y115865D01*
X246935Y115879D01*
X246977Y115921D01*
X247046Y115962D01*
X247129Y116018D01*
X247226Y116073D01*
X247337Y116143D01*
X247476Y116212D01*
X247629Y116281D01*
X247795Y116351D01*
X247975Y116406D01*
X248169Y116462D01*
X248377Y116503D01*
X248599Y116545D01*
X248835Y116559D01*
X249085Y116573D01*
X249223D01*
X249321Y116559D01*
D02*
G37*
G36*
X241291Y116517D02*
X241416D01*
X241707Y116503D01*
X242012Y116462D01*
X242345Y116420D01*
X242650Y116351D01*
X242802Y116309D01*
X242927Y116267D01*
X242941D01*
X242955Y116254D01*
X243038Y116212D01*
X243163Y116157D01*
X243316Y116059D01*
X243482Y115935D01*
X243662Y115768D01*
X243829Y115574D01*
X243995Y115352D01*
Y115338D01*
X244009Y115324D01*
X244064Y115241D01*
X244120Y115103D01*
X244203Y114922D01*
X244272Y114714D01*
X244342Y114465D01*
X244383Y114201D01*
X244397Y113910D01*
Y113896D01*
Y113868D01*
Y113813D01*
X244383Y113743D01*
Y113646D01*
X244370Y113549D01*
X244314Y113314D01*
X244231Y113036D01*
X244120Y112745D01*
X243953Y112454D01*
X243843Y112315D01*
X243731Y112176D01*
X243718Y112162D01*
X243704Y112149D01*
X243662Y112107D01*
X243607Y112065D01*
X243537Y112010D01*
X243454Y111954D01*
X243343Y111885D01*
X243232Y111802D01*
X243094Y111733D01*
X242941Y111663D01*
X242775Y111580D01*
X242594Y111511D01*
X242386Y111455D01*
X242178Y111386D01*
X241943Y111344D01*
X241693Y111302D01*
X241721Y111289D01*
X241776Y111261D01*
X241859Y111206D01*
X241970Y111150D01*
X242220Y110997D01*
X242345Y110900D01*
X242456Y110817D01*
X242483Y110789D01*
X242553Y110720D01*
X242664Y110609D01*
X242802Y110470D01*
X242955Y110276D01*
X243135Y110068D01*
X243316Y109819D01*
X243510Y109541D01*
X245160Y106934D01*
X243579D01*
X242317Y108931D01*
Y108945D01*
X242289Y108973D01*
X242262Y109014D01*
X242220Y109070D01*
X242123Y109222D01*
X241998Y109416D01*
X241845Y109625D01*
X241693Y109846D01*
X241540Y110054D01*
X241402Y110248D01*
X241388Y110262D01*
X241346Y110318D01*
X241277Y110401D01*
X241180Y110498D01*
X240972Y110706D01*
X240861Y110803D01*
X240750Y110886D01*
X240736Y110900D01*
X240708Y110914D01*
X240653Y110942D01*
X240569Y110984D01*
X240486Y111025D01*
X240389Y111067D01*
X240167Y111136D01*
X240154D01*
X240126Y111150D01*
X240070D01*
X240001Y111164D01*
X239904Y111178D01*
X239793D01*
X239640Y111192D01*
X238004D01*
Y106934D01*
X236728D01*
Y116531D01*
X241180D01*
X241291Y116517D01*
D02*
G37*
G36*
X100487Y106934D02*
X99308D01*
Y114437D01*
X99294Y114423D01*
X99225Y114368D01*
X99142Y114284D01*
X99003Y114187D01*
X98850Y114062D01*
X98656Y113924D01*
X98434Y113771D01*
X98185Y113619D01*
X98171D01*
X98157Y113605D01*
X98074Y113549D01*
X97935Y113480D01*
X97769Y113397D01*
X97574Y113300D01*
X97366Y113202D01*
X97158Y113105D01*
X96950Y113022D01*
Y114159D01*
X96964D01*
X96992Y114187D01*
X97047Y114201D01*
X97117Y114243D01*
X97200Y114284D01*
X97297Y114340D01*
X97533Y114478D01*
X97810Y114631D01*
X98088Y114825D01*
X98379Y115047D01*
X98670Y115283D01*
X98684Y115297D01*
X98698Y115310D01*
X98739Y115352D01*
X98795Y115394D01*
X98920Y115532D01*
X99086Y115699D01*
X99253Y115893D01*
X99433Y116115D01*
X99585Y116337D01*
X99724Y116573D01*
X100487D01*
Y106934D01*
D02*
G37*
G36*
X91431Y116517D02*
X91556D01*
X91847Y116503D01*
X92152Y116462D01*
X92485Y116420D01*
X92790Y116351D01*
X92942Y116309D01*
X93067Y116267D01*
X93081D01*
X93095Y116254D01*
X93178Y116212D01*
X93303Y116157D01*
X93455Y116059D01*
X93622Y115935D01*
X93802Y115768D01*
X93969Y115574D01*
X94135Y115352D01*
Y115338D01*
X94149Y115324D01*
X94204Y115241D01*
X94260Y115103D01*
X94343Y114922D01*
X94412Y114714D01*
X94482Y114465D01*
X94523Y114201D01*
X94537Y113910D01*
Y113896D01*
Y113868D01*
Y113813D01*
X94523Y113743D01*
Y113646D01*
X94509Y113549D01*
X94454Y113314D01*
X94371Y113036D01*
X94260Y112745D01*
X94093Y112454D01*
X93982Y112315D01*
X93871Y112176D01*
X93858Y112162D01*
X93844Y112149D01*
X93802Y112107D01*
X93747Y112065D01*
X93677Y112010D01*
X93594Y111954D01*
X93483Y111885D01*
X93372Y111802D01*
X93234Y111733D01*
X93081Y111663D01*
X92915Y111580D01*
X92734Y111511D01*
X92526Y111455D01*
X92318Y111386D01*
X92083Y111344D01*
X91833Y111302D01*
X91861Y111289D01*
X91916Y111261D01*
X91999Y111206D01*
X92110Y111150D01*
X92360Y110997D01*
X92485Y110900D01*
X92596Y110817D01*
X92623Y110789D01*
X92693Y110720D01*
X92804Y110609D01*
X92942Y110470D01*
X93095Y110276D01*
X93275Y110068D01*
X93455Y109819D01*
X93650Y109541D01*
X95300Y106934D01*
X93719D01*
X92457Y108931D01*
Y108945D01*
X92429Y108973D01*
X92402Y109014D01*
X92360Y109070D01*
X92263Y109222D01*
X92138Y109416D01*
X91985Y109625D01*
X91833Y109846D01*
X91680Y110054D01*
X91542Y110248D01*
X91528Y110262D01*
X91486Y110318D01*
X91417Y110401D01*
X91320Y110498D01*
X91112Y110706D01*
X91001Y110803D01*
X90890Y110886D01*
X90876Y110900D01*
X90848Y110914D01*
X90793Y110942D01*
X90709Y110984D01*
X90626Y111025D01*
X90529Y111067D01*
X90307Y111136D01*
X90294D01*
X90266Y111150D01*
X90210D01*
X90141Y111164D01*
X90044Y111178D01*
X89933D01*
X89780Y111192D01*
X88144D01*
Y106934D01*
X86868D01*
Y116531D01*
X91320D01*
X91431Y116517D01*
D02*
G37*
G36*
X239111Y267435D02*
X239222Y267421D01*
X239361Y267407D01*
X239513Y267379D01*
X239666Y267351D01*
X240026Y267254D01*
X240387Y267116D01*
X240567Y267033D01*
X240747Y266935D01*
X240914Y266811D01*
X241066Y266672D01*
X241080Y266658D01*
X241108Y266644D01*
X241136Y266589D01*
X241191Y266533D01*
X241261Y266464D01*
X241330Y266367D01*
X241399Y266270D01*
X241482Y266145D01*
X241621Y265881D01*
X241760Y265549D01*
X241815Y265382D01*
X241843Y265188D01*
X241871Y264994D01*
X241885Y264786D01*
Y264758D01*
Y264689D01*
X241871Y264578D01*
X241857Y264425D01*
X241829Y264259D01*
X241774Y264065D01*
X241718Y263857D01*
X241635Y263649D01*
X241621Y263621D01*
X241593Y263552D01*
X241538Y263441D01*
X241455Y263288D01*
X241344Y263122D01*
X241205Y262914D01*
X241039Y262705D01*
X240844Y262470D01*
X240817Y262442D01*
X240747Y262359D01*
X240678Y262290D01*
X240609Y262220D01*
X240525Y262137D01*
X240415Y262026D01*
X240304Y261915D01*
X240165Y261790D01*
X240026Y261651D01*
X239860Y261499D01*
X239680Y261346D01*
X239485Y261166D01*
X239263Y260986D01*
X239042Y260792D01*
X239028Y260778D01*
X239000Y260750D01*
X238944Y260709D01*
X238875Y260653D01*
X238792Y260570D01*
X238695Y260487D01*
X238473Y260306D01*
X238237Y260098D01*
X238015Y259890D01*
X237821Y259710D01*
X237738Y259641D01*
X237669Y259571D01*
X237655Y259557D01*
X237613Y259516D01*
X237558Y259460D01*
X237488Y259377D01*
X237419Y259280D01*
X237336Y259183D01*
X237169Y258947D01*
X241898D01*
Y257810D01*
X235533D01*
Y257824D01*
Y257879D01*
Y257963D01*
X235547Y258074D01*
X235561Y258198D01*
X235588Y258337D01*
X235616Y258476D01*
X235672Y258628D01*
Y258642D01*
X235685Y258656D01*
X235713Y258739D01*
X235769Y258864D01*
X235852Y259030D01*
X235963Y259225D01*
X236101Y259447D01*
X236254Y259668D01*
X236448Y259904D01*
Y259918D01*
X236476Y259932D01*
X236545Y260015D01*
X236670Y260140D01*
X236850Y260320D01*
X237058Y260528D01*
X237322Y260778D01*
X237641Y261055D01*
X237988Y261346D01*
X238001Y261360D01*
X238057Y261402D01*
X238140Y261471D01*
X238237Y261555D01*
X238362Y261665D01*
X238515Y261790D01*
X238667Y261929D01*
X238847Y262082D01*
X239194Y262414D01*
X239541Y262747D01*
X239707Y262914D01*
X239860Y263080D01*
X239998Y263232D01*
X240110Y263385D01*
Y263399D01*
X240137Y263413D01*
X240165Y263454D01*
X240193Y263510D01*
X240290Y263662D01*
X240401Y263843D01*
X240498Y264065D01*
X240595Y264300D01*
X240650Y264564D01*
X240678Y264813D01*
Y264827D01*
Y264841D01*
X240664Y264925D01*
X240650Y265063D01*
X240609Y265216D01*
X240553Y265410D01*
X240456Y265604D01*
X240331Y265798D01*
X240165Y265992D01*
X240137Y266020D01*
X240068Y266076D01*
X239971Y266145D01*
X239818Y266242D01*
X239624Y266325D01*
X239402Y266408D01*
X239139Y266464D01*
X238847Y266478D01*
X238764D01*
X238709Y266464D01*
X238542Y266450D01*
X238348Y266408D01*
X238140Y266353D01*
X237904Y266256D01*
X237682Y266131D01*
X237474Y265965D01*
X237447Y265937D01*
X237391Y265868D01*
X237308Y265757D01*
X237225Y265590D01*
X237128Y265396D01*
X237045Y265146D01*
X236989Y264869D01*
X236961Y264550D01*
X235755Y264675D01*
Y264689D01*
X235769Y264730D01*
Y264800D01*
X235783Y264897D01*
X235810Y265008D01*
X235838Y265133D01*
X235880Y265285D01*
X235921Y265438D01*
X236032Y265770D01*
X236199Y266103D01*
X236296Y266270D01*
X236420Y266436D01*
X236545Y266589D01*
X236684Y266727D01*
X236698Y266741D01*
X236726Y266755D01*
X236767Y266797D01*
X236836Y266838D01*
X236920Y266894D01*
X237017Y266949D01*
X237128Y267019D01*
X237266Y267088D01*
X237419Y267157D01*
X237585Y267227D01*
X237766Y267282D01*
X237960Y267338D01*
X238168Y267379D01*
X238390Y267421D01*
X238626Y267435D01*
X238875Y267449D01*
X239014D01*
X239111Y267435D01*
D02*
G37*
G36*
X230110Y267560D02*
X230235D01*
X230360Y267546D01*
X230526Y267518D01*
X230693Y267490D01*
X231053Y267421D01*
X231469Y267310D01*
X231872Y267143D01*
X232080Y267046D01*
X232288Y266935D01*
X232302Y266922D01*
X232329Y266908D01*
X232385Y266866D01*
X232468Y266824D01*
X232551Y266755D01*
X232662Y266672D01*
X232898Y266478D01*
X233148Y266228D01*
X233425Y265923D01*
X233688Y265562D01*
X233910Y265160D01*
Y265146D01*
X233938Y265105D01*
X233966Y265049D01*
X233993Y264966D01*
X234049Y264855D01*
X234091Y264730D01*
X234146Y264578D01*
X234202Y264411D01*
X234243Y264231D01*
X234299Y264037D01*
X234354Y263829D01*
X234396Y263607D01*
X234451Y263122D01*
X234479Y262609D01*
Y262595D01*
Y262553D01*
Y262498D01*
Y262414D01*
X234465Y262303D01*
Y262178D01*
X234451Y262040D01*
X234437Y261901D01*
X234396Y261568D01*
X234326Y261208D01*
X234243Y260833D01*
X234118Y260473D01*
Y260459D01*
X234104Y260431D01*
X234077Y260376D01*
X234049Y260320D01*
X234007Y260237D01*
X233966Y260140D01*
X233855Y259918D01*
X233702Y259655D01*
X233508Y259377D01*
X233286Y259100D01*
X233037Y258822D01*
X233050D01*
X233078Y258795D01*
X233120Y258767D01*
X233189Y258725D01*
X233258Y258670D01*
X233356Y258614D01*
X233564Y258490D01*
X233813Y258337D01*
X234091Y258184D01*
X234382Y258060D01*
X234659Y257935D01*
X234285Y257061D01*
X234271D01*
X234243Y257075D01*
X234188Y257103D01*
X234104Y257130D01*
X234007Y257172D01*
X233896Y257227D01*
X233772Y257283D01*
X233633Y257352D01*
X233328Y257519D01*
X232981Y257713D01*
X232607Y257963D01*
X232218Y258240D01*
X232204D01*
X232177Y258212D01*
X232107Y258184D01*
X232038Y258143D01*
X231927Y258101D01*
X231816Y258046D01*
X231677Y258004D01*
X231525Y257949D01*
X231359Y257893D01*
X231178Y257838D01*
X230776Y257741D01*
X230332Y257671D01*
X230096Y257657D01*
X229861Y257644D01*
X229736D01*
X229639Y257657D01*
X229528D01*
X229389Y257671D01*
X229237Y257699D01*
X229070Y257727D01*
X228710Y257796D01*
X228307Y257907D01*
X227891Y258060D01*
X227697Y258157D01*
X227489Y258268D01*
X227475Y258281D01*
X227448Y258295D01*
X227392Y258337D01*
X227323Y258379D01*
X227226Y258448D01*
X227129Y258531D01*
X226893Y258725D01*
X226629Y258975D01*
X226366Y259280D01*
X226102Y259627D01*
X225867Y260029D01*
Y260043D01*
X225839Y260084D01*
X225811Y260140D01*
X225783Y260223D01*
X225742Y260334D01*
X225686Y260459D01*
X225631Y260611D01*
X225589Y260778D01*
X225534Y260958D01*
X225478Y261152D01*
X225437Y261360D01*
X225381Y261596D01*
X225326Y262082D01*
X225298Y262595D01*
Y262609D01*
Y262664D01*
Y262733D01*
X225312Y262830D01*
Y262955D01*
X225326Y263108D01*
X225340Y263274D01*
X225367Y263454D01*
X225437Y263857D01*
X225534Y264286D01*
X225672Y264744D01*
X225867Y265188D01*
X225881Y265202D01*
X225894Y265243D01*
X225922Y265299D01*
X225978Y265382D01*
X226033Y265479D01*
X226102Y265590D01*
X226297Y265854D01*
X226518Y266131D01*
X226810Y266422D01*
X227129Y266714D01*
X227503Y266963D01*
X227517Y266977D01*
X227558Y266991D01*
X227614Y267019D01*
X227697Y267060D01*
X227794Y267102D01*
X227905Y267157D01*
X228044Y267213D01*
X228197Y267268D01*
X228377Y267324D01*
X228557Y267379D01*
X228959Y267476D01*
X229403Y267546D01*
X229639Y267573D01*
X230013D01*
X230110Y267560D01*
D02*
G37*
G36*
X80117Y253238D02*
X78938D01*
Y260741D01*
X78924Y260727D01*
X78855Y260672D01*
X78772Y260588D01*
X78633Y260491D01*
X78481Y260366D01*
X78287Y260228D01*
X78065Y260075D01*
X77815Y259923D01*
X77801D01*
X77787Y259909D01*
X77704Y259853D01*
X77565Y259784D01*
X77399Y259701D01*
X77205Y259604D01*
X76997Y259506D01*
X76789Y259409D01*
X76581Y259326D01*
Y260463D01*
X76595D01*
X76622Y260491D01*
X76678Y260505D01*
X76747Y260547D01*
X76830Y260588D01*
X76927Y260644D01*
X77163Y260782D01*
X77441Y260935D01*
X77718Y261129D01*
X78009Y261351D01*
X78300Y261587D01*
X78314Y261601D01*
X78328Y261614D01*
X78370Y261656D01*
X78425Y261698D01*
X78550Y261836D01*
X78717Y262003D01*
X78883Y262197D01*
X79063Y262419D01*
X79216Y262641D01*
X79354Y262876D01*
X80117D01*
Y253238D01*
D02*
G37*
G36*
X70090Y262987D02*
X70215D01*
X70340Y262974D01*
X70506Y262946D01*
X70673Y262918D01*
X71033Y262849D01*
X71449Y262738D01*
X71852Y262571D01*
X72060Y262474D01*
X72268Y262363D01*
X72281Y262349D01*
X72309Y262336D01*
X72365Y262294D01*
X72448Y262253D01*
X72531Y262183D01*
X72642Y262100D01*
X72878Y261906D01*
X73127Y261656D01*
X73405Y261351D01*
X73668Y260990D01*
X73890Y260588D01*
Y260574D01*
X73918Y260533D01*
X73946Y260477D01*
X73973Y260394D01*
X74029Y260283D01*
X74071Y260158D01*
X74126Y260006D01*
X74181Y259839D01*
X74223Y259659D01*
X74279Y259465D01*
X74334Y259257D01*
X74376Y259035D01*
X74431Y258550D01*
X74459Y258036D01*
Y258023D01*
Y257981D01*
Y257925D01*
Y257842D01*
X74445Y257731D01*
Y257607D01*
X74431Y257468D01*
X74417Y257329D01*
X74376Y256996D01*
X74306Y256636D01*
X74223Y256261D01*
X74098Y255901D01*
Y255887D01*
X74084Y255859D01*
X74057Y255804D01*
X74029Y255748D01*
X73987Y255665D01*
X73946Y255568D01*
X73835Y255346D01*
X73682Y255082D01*
X73488Y254805D01*
X73266Y254528D01*
X73017Y254250D01*
X73030D01*
X73058Y254223D01*
X73100Y254195D01*
X73169Y254153D01*
X73239Y254098D01*
X73335Y254042D01*
X73544Y253918D01*
X73793Y253765D01*
X74071Y253612D01*
X74362Y253488D01*
X74639Y253363D01*
X74265Y252489D01*
X74251D01*
X74223Y252503D01*
X74168Y252531D01*
X74084Y252558D01*
X73987Y252600D01*
X73876Y252656D01*
X73752Y252711D01*
X73613Y252780D01*
X73308Y252947D01*
X72961Y253141D01*
X72587Y253391D01*
X72198Y253668D01*
X72185D01*
X72157Y253640D01*
X72087Y253612D01*
X72018Y253571D01*
X71907Y253529D01*
X71796Y253474D01*
X71658Y253432D01*
X71505Y253377D01*
X71339Y253321D01*
X71158Y253266D01*
X70756Y253169D01*
X70312Y253099D01*
X70076Y253085D01*
X69841Y253072D01*
X69716D01*
X69619Y253085D01*
X69508D01*
X69369Y253099D01*
X69217Y253127D01*
X69050Y253155D01*
X68690Y253224D01*
X68287Y253335D01*
X67871Y253488D01*
X67677Y253585D01*
X67469Y253696D01*
X67455Y253710D01*
X67428Y253723D01*
X67372Y253765D01*
X67303Y253807D01*
X67206Y253876D01*
X67109Y253959D01*
X66873Y254153D01*
X66609Y254403D01*
X66346Y254708D01*
X66082Y255055D01*
X65847Y255457D01*
Y255471D01*
X65819Y255512D01*
X65791Y255568D01*
X65763Y255651D01*
X65722Y255762D01*
X65666Y255887D01*
X65611Y256039D01*
X65569Y256206D01*
X65514Y256386D01*
X65458Y256580D01*
X65417Y256788D01*
X65361Y257024D01*
X65306Y257509D01*
X65278Y258023D01*
Y258036D01*
Y258092D01*
Y258161D01*
X65292Y258258D01*
Y258383D01*
X65306Y258536D01*
X65320Y258702D01*
X65347Y258882D01*
X65417Y259285D01*
X65514Y259715D01*
X65652Y260172D01*
X65847Y260616D01*
X65861Y260630D01*
X65874Y260672D01*
X65902Y260727D01*
X65958Y260810D01*
X66013Y260907D01*
X66082Y261018D01*
X66276Y261282D01*
X66498Y261559D01*
X66790Y261850D01*
X67109Y262141D01*
X67483Y262391D01*
X67497Y262405D01*
X67538Y262419D01*
X67594Y262447D01*
X67677Y262488D01*
X67774Y262530D01*
X67885Y262585D01*
X68024Y262641D01*
X68176Y262696D01*
X68357Y262752D01*
X68537Y262807D01*
X68939Y262904D01*
X69383Y262974D01*
X69619Y263001D01*
X69993D01*
X70090Y262987D01*
D02*
G37*
G36*
X27630Y172212D02*
X26451D01*
Y179715D01*
X26437Y179701D01*
X26368Y179646D01*
X26284Y179562D01*
X26146Y179465D01*
X25993Y179340D01*
X25799Y179202D01*
X25577Y179049D01*
X25327Y178897D01*
X25314D01*
X25300Y178883D01*
X25217Y178827D01*
X25078Y178758D01*
X24911Y178675D01*
X24717Y178578D01*
X24509Y178480D01*
X24301Y178383D01*
X24093Y178300D01*
Y179437D01*
X24107D01*
X24135Y179465D01*
X24190Y179479D01*
X24260Y179521D01*
X24343Y179562D01*
X24440Y179618D01*
X24676Y179756D01*
X24953Y179909D01*
X25230Y180103D01*
X25522Y180325D01*
X25813Y180561D01*
X25827Y180575D01*
X25841Y180588D01*
X25882Y180630D01*
X25938Y180672D01*
X26063Y180810D01*
X26229Y180977D01*
X26395Y181171D01*
X26576Y181393D01*
X26728Y181615D01*
X26867Y181850D01*
X27630D01*
Y172212D01*
D02*
G37*
G36*
X18879Y181795D02*
X19114Y181781D01*
X19364Y181767D01*
X19600Y181740D01*
X19808Y181712D01*
X19836D01*
X19933Y181684D01*
X20057Y181656D01*
X20224Y181615D01*
X20404Y181545D01*
X20598Y181462D01*
X20806Y181365D01*
X20987Y181254D01*
X21014Y181240D01*
X21070Y181199D01*
X21153Y181115D01*
X21264Y181018D01*
X21389Y180894D01*
X21514Y180727D01*
X21652Y180547D01*
X21763Y180339D01*
X21777Y180311D01*
X21805Y180242D01*
X21860Y180117D01*
X21916Y179951D01*
X21957Y179756D01*
X22013Y179534D01*
X22041Y179285D01*
X22055Y179021D01*
Y179007D01*
Y178966D01*
Y178910D01*
X22041Y178813D01*
X22027Y178716D01*
X22013Y178591D01*
X21985Y178453D01*
X21957Y178300D01*
X21860Y177981D01*
X21805Y177815D01*
X21722Y177635D01*
X21625Y177454D01*
X21528Y177288D01*
X21403Y177121D01*
X21264Y176955D01*
X21250Y176941D01*
X21222Y176913D01*
X21181Y176872D01*
X21112Y176830D01*
X21028Y176761D01*
X20917Y176691D01*
X20779Y176608D01*
X20626Y176539D01*
X20446Y176456D01*
X20238Y176373D01*
X20016Y176303D01*
X19752Y176248D01*
X19475Y176192D01*
X19170Y176151D01*
X18823Y176123D01*
X18463Y176109D01*
X16008D01*
Y172212D01*
X14732D01*
Y181809D01*
X18671D01*
X18879Y181795D01*
D02*
G37*
G36*
X154363Y196185D02*
X154488Y196172D01*
X154640Y196158D01*
X154793Y196144D01*
X154973Y196102D01*
X155347Y196019D01*
X155764Y195894D01*
X155972Y195811D01*
X156166Y195714D01*
X156360Y195589D01*
X156554Y195464D01*
X156568Y195450D01*
X156596Y195437D01*
X156651Y195395D01*
X156721Y195326D01*
X156790Y195256D01*
X156887Y195159D01*
X156984Y195048D01*
X157095Y194937D01*
X157206Y194799D01*
X157317Y194632D01*
X157442Y194466D01*
X157553Y194286D01*
X157650Y194077D01*
X157761Y193869D01*
X157844Y193648D01*
X157927Y193398D01*
X156679Y193107D01*
Y193121D01*
X156665Y193148D01*
X156637Y193204D01*
X156609Y193273D01*
X156582Y193356D01*
X156540Y193467D01*
X156429Y193689D01*
X156291Y193939D01*
X156124Y194188D01*
X155916Y194424D01*
X155694Y194632D01*
X155667Y194660D01*
X155583Y194715D01*
X155445Y194785D01*
X155264Y194882D01*
X155028Y194965D01*
X154765Y195048D01*
X154446Y195104D01*
X154099Y195118D01*
X153988D01*
X153919Y195104D01*
X153822D01*
X153711Y195090D01*
X153448Y195048D01*
X153156Y194993D01*
X152851Y194896D01*
X152532Y194757D01*
X152241Y194577D01*
X152227D01*
X152213Y194549D01*
X152116Y194480D01*
X151991Y194369D01*
X151839Y194202D01*
X151658Y193994D01*
X151492Y193759D01*
X151340Y193467D01*
X151201Y193148D01*
Y193134D01*
X151187Y193107D01*
X151173Y193065D01*
X151159Y192996D01*
X151131Y192913D01*
X151104Y192815D01*
X151062Y192580D01*
X151007Y192302D01*
X150951Y191997D01*
X150924Y191664D01*
X150910Y191304D01*
Y191290D01*
Y191248D01*
Y191179D01*
Y191096D01*
X150924Y190999D01*
Y190874D01*
X150937Y190735D01*
X150951Y190583D01*
X150993Y190250D01*
X151062Y189889D01*
X151145Y189529D01*
X151256Y189168D01*
Y189154D01*
X151270Y189126D01*
X151298Y189085D01*
X151326Y189016D01*
X151409Y188849D01*
X151534Y188655D01*
X151686Y188433D01*
X151880Y188197D01*
X152102Y187989D01*
X152366Y187795D01*
X152380D01*
X152407Y187781D01*
X152449Y187754D01*
X152505Y187726D01*
X152574Y187698D01*
X152657Y187656D01*
X152851Y187573D01*
X153101Y187490D01*
X153378Y187421D01*
X153683Y187365D01*
X154002Y187351D01*
X154099D01*
X154183Y187365D01*
X154280D01*
X154377Y187379D01*
X154626Y187435D01*
X154918Y187504D01*
X155209Y187615D01*
X155514Y187767D01*
X155667Y187851D01*
X155805Y187962D01*
X155819Y187975D01*
X155833Y187989D01*
X155875Y188031D01*
X155930Y188072D01*
X155985Y188142D01*
X156055Y188225D01*
X156138Y188308D01*
X156207Y188419D01*
X156291Y188544D01*
X156388Y188683D01*
X156471Y188821D01*
X156554Y188988D01*
X156623Y189168D01*
X156693Y189362D01*
X156762Y189570D01*
X156818Y189792D01*
X158094Y189473D01*
Y189459D01*
X158080Y189404D01*
X158052Y189321D01*
X158010Y189210D01*
X157969Y189085D01*
X157913Y188932D01*
X157844Y188766D01*
X157761Y188586D01*
X157566Y188197D01*
X157317Y187809D01*
X157164Y187615D01*
X157012Y187421D01*
X156845Y187254D01*
X156651Y187088D01*
X156637Y187074D01*
X156609Y187046D01*
X156540Y187019D01*
X156471Y186963D01*
X156360Y186894D01*
X156249Y186824D01*
X156096Y186755D01*
X155944Y186686D01*
X155764Y186602D01*
X155569Y186533D01*
X155361Y186464D01*
X155140Y186394D01*
X154904Y186339D01*
X154654Y186311D01*
X154391Y186283D01*
X154113Y186270D01*
X153961D01*
X153850Y186283D01*
X153725D01*
X153572Y186297D01*
X153406Y186325D01*
X153212Y186353D01*
X152810Y186422D01*
X152394Y186533D01*
X151978Y186686D01*
X151783Y186783D01*
X151589Y186894D01*
X151575Y186908D01*
X151548Y186921D01*
X151492Y186963D01*
X151437Y187019D01*
X151353Y187074D01*
X151256Y187157D01*
X151145Y187254D01*
X151034Y187365D01*
X150924Y187490D01*
X150799Y187615D01*
X150549Y187934D01*
X150313Y188308D01*
X150105Y188724D01*
Y188738D01*
X150077Y188780D01*
X150064Y188849D01*
X150022Y188932D01*
X149994Y189043D01*
X149953Y189182D01*
X149897Y189335D01*
X149856Y189501D01*
X149814Y189681D01*
X149759Y189889D01*
X149689Y190319D01*
X149634Y190805D01*
X149606Y191304D01*
Y191318D01*
Y191373D01*
Y191456D01*
X149620Y191553D01*
Y191692D01*
X149634Y191831D01*
X149648Y192011D01*
X149675Y192191D01*
X149745Y192594D01*
X149842Y193037D01*
X149980Y193481D01*
X150175Y193911D01*
X150189Y193925D01*
X150202Y193967D01*
X150230Y194022D01*
X150286Y194091D01*
X150341Y194188D01*
X150410Y194299D01*
X150591Y194549D01*
X150826Y194826D01*
X151104Y195104D01*
X151423Y195381D01*
X151797Y195617D01*
X151811Y195631D01*
X151853Y195645D01*
X151908Y195672D01*
X151978Y195714D01*
X152088Y195756D01*
X152199Y195797D01*
X152338Y195853D01*
X152491Y195908D01*
X152657Y195964D01*
X152837Y196019D01*
X153226Y196102D01*
X153669Y196172D01*
X154127Y196199D01*
X154266D01*
X154363Y196185D01*
D02*
G37*
G36*
X162587Y196061D02*
X162698Y196047D01*
X162836Y196033D01*
X162989Y196005D01*
X163142Y195977D01*
X163502Y195880D01*
X163863Y195742D01*
X164043Y195658D01*
X164223Y195561D01*
X164390Y195437D01*
X164542Y195298D01*
X164556Y195284D01*
X164584Y195270D01*
X164612Y195215D01*
X164667Y195159D01*
X164736Y195090D01*
X164806Y194993D01*
X164875Y194896D01*
X164958Y194771D01*
X165097Y194507D01*
X165236Y194175D01*
X165291Y194008D01*
X165319Y193814D01*
X165347Y193620D01*
X165361Y193412D01*
Y193384D01*
Y193315D01*
X165347Y193204D01*
X165333Y193051D01*
X165305Y192885D01*
X165250Y192691D01*
X165194Y192483D01*
X165111Y192275D01*
X165097Y192247D01*
X165069Y192178D01*
X165014Y192067D01*
X164931Y191914D01*
X164820Y191748D01*
X164681Y191540D01*
X164515Y191332D01*
X164320Y191096D01*
X164293Y191068D01*
X164223Y190985D01*
X164154Y190916D01*
X164085Y190846D01*
X164001Y190763D01*
X163890Y190652D01*
X163780Y190541D01*
X163641Y190416D01*
X163502Y190278D01*
X163336Y190125D01*
X163155Y189972D01*
X162961Y189792D01*
X162739Y189612D01*
X162518Y189418D01*
X162504Y189404D01*
X162476Y189376D01*
X162420Y189335D01*
X162351Y189279D01*
X162268Y189196D01*
X162171Y189113D01*
X161949Y188932D01*
X161713Y188724D01*
X161491Y188516D01*
X161297Y188336D01*
X161214Y188267D01*
X161145Y188197D01*
X161131Y188183D01*
X161089Y188142D01*
X161034Y188086D01*
X160964Y188003D01*
X160895Y187906D01*
X160812Y187809D01*
X160645Y187573D01*
X165374D01*
Y186436D01*
X159009D01*
Y186450D01*
Y186505D01*
Y186589D01*
X159023Y186700D01*
X159037Y186824D01*
X159064Y186963D01*
X159092Y187102D01*
X159148Y187254D01*
Y187268D01*
X159161Y187282D01*
X159189Y187365D01*
X159244Y187490D01*
X159328Y187656D01*
X159439Y187851D01*
X159577Y188072D01*
X159730Y188294D01*
X159924Y188530D01*
Y188544D01*
X159952Y188558D01*
X160021Y188641D01*
X160146Y188766D01*
X160326Y188946D01*
X160534Y189154D01*
X160798Y189404D01*
X161117Y189681D01*
X161464Y189972D01*
X161477Y189986D01*
X161533Y190028D01*
X161616Y190097D01*
X161713Y190180D01*
X161838Y190291D01*
X161991Y190416D01*
X162143Y190555D01*
X162323Y190707D01*
X162670Y191040D01*
X163017Y191373D01*
X163183Y191540D01*
X163336Y191706D01*
X163474Y191859D01*
X163585Y192011D01*
Y192025D01*
X163613Y192039D01*
X163641Y192080D01*
X163669Y192136D01*
X163766Y192288D01*
X163877Y192469D01*
X163974Y192691D01*
X164071Y192926D01*
X164126Y193190D01*
X164154Y193440D01*
Y193453D01*
Y193467D01*
X164140Y193550D01*
X164126Y193689D01*
X164085Y193842D01*
X164029Y194036D01*
X163932Y194230D01*
X163807Y194424D01*
X163641Y194618D01*
X163613Y194646D01*
X163544Y194702D01*
X163447Y194771D01*
X163294Y194868D01*
X163100Y194951D01*
X162878Y195034D01*
X162615Y195090D01*
X162323Y195104D01*
X162240D01*
X162185Y195090D01*
X162018Y195076D01*
X161824Y195034D01*
X161616Y194979D01*
X161380Y194882D01*
X161158Y194757D01*
X160950Y194591D01*
X160923Y194563D01*
X160867Y194494D01*
X160784Y194383D01*
X160701Y194216D01*
X160604Y194022D01*
X160520Y193772D01*
X160465Y193495D01*
X160437Y193176D01*
X159231Y193301D01*
Y193315D01*
X159244Y193356D01*
Y193426D01*
X159258Y193523D01*
X159286Y193634D01*
X159314Y193759D01*
X159355Y193911D01*
X159397Y194064D01*
X159508Y194396D01*
X159675Y194729D01*
X159771Y194896D01*
X159896Y195062D01*
X160021Y195215D01*
X160160Y195353D01*
X160174Y195367D01*
X160201Y195381D01*
X160243Y195423D01*
X160312Y195464D01*
X160396Y195520D01*
X160493Y195575D01*
X160604Y195645D01*
X160742Y195714D01*
X160895Y195783D01*
X161061Y195853D01*
X161242Y195908D01*
X161436Y195964D01*
X161644Y196005D01*
X161866Y196047D01*
X162101Y196061D01*
X162351Y196075D01*
X162490D01*
X162587Y196061D01*
D02*
G37*
G36*
X154363Y236318D02*
X154488Y236304D01*
X154640Y236290D01*
X154793Y236276D01*
X154973Y236234D01*
X155347Y236151D01*
X155764Y236026D01*
X155972Y235943D01*
X156166Y235846D01*
X156360Y235721D01*
X156554Y235596D01*
X156568Y235583D01*
X156596Y235569D01*
X156651Y235527D01*
X156721Y235458D01*
X156790Y235388D01*
X156887Y235291D01*
X156984Y235180D01*
X157095Y235069D01*
X157206Y234931D01*
X157317Y234764D01*
X157442Y234598D01*
X157553Y234417D01*
X157650Y234209D01*
X157761Y234002D01*
X157844Y233780D01*
X157927Y233530D01*
X156679Y233239D01*
Y233253D01*
X156665Y233280D01*
X156637Y233336D01*
X156609Y233405D01*
X156582Y233488D01*
X156540Y233599D01*
X156429Y233821D01*
X156291Y234071D01*
X156124Y234320D01*
X155916Y234556D01*
X155694Y234764D01*
X155667Y234792D01*
X155583Y234847D01*
X155445Y234917D01*
X155264Y235014D01*
X155028Y235097D01*
X154765Y235180D01*
X154446Y235236D01*
X154099Y235250D01*
X153988D01*
X153919Y235236D01*
X153822D01*
X153711Y235222D01*
X153448Y235180D01*
X153156Y235125D01*
X152851Y235028D01*
X152532Y234889D01*
X152241Y234709D01*
X152227D01*
X152213Y234681D01*
X152116Y234612D01*
X151991Y234501D01*
X151839Y234334D01*
X151658Y234126D01*
X151492Y233890D01*
X151340Y233599D01*
X151201Y233280D01*
Y233266D01*
X151187Y233239D01*
X151173Y233197D01*
X151159Y233128D01*
X151131Y233044D01*
X151104Y232948D01*
X151062Y232712D01*
X151007Y232434D01*
X150951Y232129D01*
X150924Y231796D01*
X150910Y231436D01*
Y231422D01*
Y231380D01*
Y231311D01*
Y231228D01*
X150924Y231131D01*
Y231006D01*
X150937Y230867D01*
X150951Y230715D01*
X150993Y230382D01*
X151062Y230021D01*
X151145Y229661D01*
X151256Y229300D01*
Y229286D01*
X151270Y229258D01*
X151298Y229217D01*
X151326Y229147D01*
X151409Y228981D01*
X151534Y228787D01*
X151686Y228565D01*
X151880Y228329D01*
X152102Y228121D01*
X152366Y227927D01*
X152380D01*
X152407Y227913D01*
X152449Y227885D01*
X152505Y227858D01*
X152574Y227830D01*
X152657Y227788D01*
X152851Y227705D01*
X153101Y227622D01*
X153378Y227553D01*
X153683Y227497D01*
X154002Y227483D01*
X154099D01*
X154183Y227497D01*
X154280D01*
X154377Y227511D01*
X154626Y227567D01*
X154918Y227636D01*
X155209Y227747D01*
X155514Y227899D01*
X155667Y227983D01*
X155805Y228093D01*
X155819Y228107D01*
X155833Y228121D01*
X155875Y228163D01*
X155930Y228204D01*
X155985Y228274D01*
X156055Y228357D01*
X156138Y228440D01*
X156207Y228551D01*
X156291Y228676D01*
X156388Y228815D01*
X156471Y228953D01*
X156554Y229120D01*
X156623Y229300D01*
X156693Y229494D01*
X156762Y229702D01*
X156818Y229924D01*
X158094Y229605D01*
Y229591D01*
X158080Y229536D01*
X158052Y229453D01*
X158010Y229342D01*
X157969Y229217D01*
X157913Y229064D01*
X157844Y228898D01*
X157761Y228718D01*
X157566Y228329D01*
X157317Y227941D01*
X157164Y227747D01*
X157012Y227553D01*
X156845Y227386D01*
X156651Y227220D01*
X156637Y227206D01*
X156609Y227178D01*
X156540Y227150D01*
X156471Y227095D01*
X156360Y227026D01*
X156249Y226956D01*
X156096Y226887D01*
X155944Y226818D01*
X155764Y226734D01*
X155569Y226665D01*
X155361Y226596D01*
X155140Y226526D01*
X154904Y226471D01*
X154654Y226443D01*
X154391Y226415D01*
X154113Y226402D01*
X153961D01*
X153850Y226415D01*
X153725D01*
X153572Y226429D01*
X153406Y226457D01*
X153212Y226485D01*
X152810Y226554D01*
X152394Y226665D01*
X151978Y226818D01*
X151783Y226915D01*
X151589Y227026D01*
X151575Y227040D01*
X151548Y227053D01*
X151492Y227095D01*
X151437Y227150D01*
X151353Y227206D01*
X151256Y227289D01*
X151145Y227386D01*
X151034Y227497D01*
X150924Y227622D01*
X150799Y227747D01*
X150549Y228066D01*
X150313Y228440D01*
X150105Y228856D01*
Y228870D01*
X150077Y228912D01*
X150064Y228981D01*
X150022Y229064D01*
X149994Y229175D01*
X149953Y229314D01*
X149897Y229466D01*
X149856Y229633D01*
X149814Y229813D01*
X149759Y230021D01*
X149689Y230451D01*
X149634Y230937D01*
X149606Y231436D01*
Y231450D01*
Y231505D01*
Y231588D01*
X149620Y231685D01*
Y231824D01*
X149634Y231963D01*
X149648Y232143D01*
X149675Y232323D01*
X149745Y232726D01*
X149842Y233169D01*
X149980Y233613D01*
X150175Y234043D01*
X150189Y234057D01*
X150202Y234098D01*
X150230Y234154D01*
X150286Y234223D01*
X150341Y234320D01*
X150410Y234431D01*
X150591Y234681D01*
X150826Y234958D01*
X151104Y235236D01*
X151423Y235513D01*
X151797Y235749D01*
X151811Y235763D01*
X151853Y235777D01*
X151908Y235804D01*
X151978Y235846D01*
X152088Y235888D01*
X152199Y235929D01*
X152338Y235985D01*
X152491Y236040D01*
X152657Y236096D01*
X152837Y236151D01*
X153226Y236234D01*
X153669Y236304D01*
X154127Y236331D01*
X154266D01*
X154363Y236318D01*
D02*
G37*
G36*
X163613Y226568D02*
X162434D01*
Y234071D01*
X162420Y234057D01*
X162351Y234002D01*
X162268Y233918D01*
X162129Y233821D01*
X161977Y233696D01*
X161782Y233558D01*
X161561Y233405D01*
X161311Y233253D01*
X161297D01*
X161283Y233239D01*
X161200Y233183D01*
X161061Y233114D01*
X160895Y233031D01*
X160701Y232934D01*
X160493Y232836D01*
X160285Y232739D01*
X160077Y232656D01*
Y233793D01*
X160091D01*
X160118Y233821D01*
X160174Y233835D01*
X160243Y233877D01*
X160326Y233918D01*
X160423Y233974D01*
X160659Y234112D01*
X160937Y234265D01*
X161214Y234459D01*
X161505Y234681D01*
X161796Y234917D01*
X161810Y234931D01*
X161824Y234944D01*
X161866Y234986D01*
X161921Y235028D01*
X162046Y235166D01*
X162212Y235333D01*
X162379Y235527D01*
X162559Y235749D01*
X162712Y235971D01*
X162850Y236206D01*
X163613D01*
Y226568D01*
D02*
G37*
%LPC*%
G36*
X189737Y114617D02*
X186714Y110318D01*
X189737D01*
Y114617D01*
D02*
G37*
G36*
X181083Y115463D02*
X178060D01*
Y112287D01*
X180917D01*
X181083Y112301D01*
X181277Y112315D01*
X181499Y112329D01*
X181721Y112357D01*
X181943Y112398D01*
X182137Y112454D01*
X182165Y112467D01*
X182220Y112495D01*
X182304Y112537D01*
X182415Y112592D01*
X182539Y112676D01*
X182664Y112773D01*
X182789Y112897D01*
X182886Y113036D01*
X182900Y113050D01*
X182928Y113105D01*
X182969Y113189D01*
X183025Y113300D01*
X183066Y113424D01*
X183108Y113563D01*
X183136Y113729D01*
X183150Y113896D01*
Y113910D01*
Y113924D01*
X183136Y114007D01*
X183122Y114132D01*
X183094Y114298D01*
X183025Y114465D01*
X182942Y114659D01*
X182817Y114839D01*
X182650Y115019D01*
X182623Y115033D01*
X182553Y115089D01*
X182442Y115158D01*
X182262Y115241D01*
X182054Y115324D01*
X181777Y115394D01*
X181458Y115449D01*
X181083Y115463D01*
D02*
G37*
G36*
X131045D02*
X128022D01*
Y112287D01*
X130879D01*
X131045Y112301D01*
X131239Y112315D01*
X131461Y112329D01*
X131683Y112357D01*
X131905Y112398D01*
X132099Y112454D01*
X132127Y112467D01*
X132182Y112495D01*
X132266Y112537D01*
X132377Y112592D01*
X132501Y112676D01*
X132626Y112773D01*
X132751Y112897D01*
X132848Y113036D01*
X132862Y113050D01*
X132890Y113105D01*
X132931Y113189D01*
X132987Y113300D01*
X133028Y113424D01*
X133070Y113563D01*
X133098Y113729D01*
X133112Y113896D01*
Y113910D01*
Y113924D01*
X133098Y114007D01*
X133084Y114132D01*
X133056Y114298D01*
X132987Y114465D01*
X132904Y114659D01*
X132779Y114839D01*
X132612Y115019D01*
X132585Y115033D01*
X132515Y115089D01*
X132404Y115158D01*
X132224Y115241D01*
X132016Y115324D01*
X131739Y115394D01*
X131420Y115449D01*
X131045Y115463D01*
D02*
G37*
G36*
X241027D02*
X238004D01*
Y112287D01*
X240861D01*
X241027Y112301D01*
X241221Y112315D01*
X241443Y112329D01*
X241665Y112357D01*
X241887Y112398D01*
X242081Y112454D01*
X242109Y112467D01*
X242164Y112495D01*
X242248Y112537D01*
X242359Y112592D01*
X242483Y112676D01*
X242608Y112773D01*
X242733Y112897D01*
X242830Y113036D01*
X242844Y113050D01*
X242872Y113105D01*
X242913Y113189D01*
X242969Y113300D01*
X243010Y113424D01*
X243052Y113563D01*
X243080Y113729D01*
X243094Y113896D01*
Y113910D01*
Y113924D01*
X243080Y114007D01*
X243066Y114132D01*
X243038Y114298D01*
X242969Y114465D01*
X242886Y114659D01*
X242761Y114839D01*
X242594Y115019D01*
X242567Y115033D01*
X242497Y115089D01*
X242386Y115158D01*
X242206Y115241D01*
X241998Y115324D01*
X241721Y115394D01*
X241402Y115449D01*
X241027Y115463D01*
D02*
G37*
G36*
X91167D02*
X88144D01*
Y112287D01*
X91001D01*
X91167Y112301D01*
X91361Y112315D01*
X91583Y112329D01*
X91805Y112357D01*
X92027Y112398D01*
X92221Y112454D01*
X92249Y112467D01*
X92304Y112495D01*
X92388Y112537D01*
X92499Y112592D01*
X92623Y112676D01*
X92748Y112773D01*
X92873Y112897D01*
X92970Y113036D01*
X92984Y113050D01*
X93012Y113105D01*
X93053Y113189D01*
X93109Y113300D01*
X93150Y113424D01*
X93192Y113563D01*
X93220Y113729D01*
X93234Y113896D01*
Y113910D01*
Y113924D01*
X93220Y114007D01*
X93206Y114132D01*
X93178Y114298D01*
X93109Y114465D01*
X93026Y114659D01*
X92901Y114839D01*
X92734Y115019D01*
X92707Y115033D01*
X92637Y115089D01*
X92526Y115158D01*
X92346Y115241D01*
X92138Y115324D01*
X91861Y115394D01*
X91542Y115449D01*
X91167Y115463D01*
D02*
G37*
G36*
X229888Y266478D02*
X229750D01*
X229653Y266464D01*
X229528Y266450D01*
X229389Y266422D01*
X229237Y266395D01*
X229070Y266353D01*
X228876Y266297D01*
X228696Y266242D01*
X228502Y266159D01*
X228294Y266062D01*
X228099Y265951D01*
X227905Y265812D01*
X227711Y265673D01*
X227531Y265493D01*
X227517Y265479D01*
X227489Y265452D01*
X227448Y265396D01*
X227392Y265313D01*
X227309Y265216D01*
X227240Y265091D01*
X227156Y264938D01*
X227073Y264772D01*
X226976Y264578D01*
X226893Y264356D01*
X226824Y264120D01*
X226754Y263857D01*
X226685Y263579D01*
X226643Y263274D01*
X226616Y262941D01*
X226602Y262595D01*
Y262567D01*
Y262511D01*
Y262414D01*
X226616Y262290D01*
X226629Y262137D01*
X226657Y261957D01*
X226685Y261749D01*
X226713Y261541D01*
X226824Y261069D01*
X226893Y260833D01*
X226990Y260597D01*
X227087Y260362D01*
X227212Y260140D01*
X227351Y259918D01*
X227517Y259724D01*
X227531Y259710D01*
X227558Y259682D01*
X227614Y259627D01*
X227683Y259571D01*
X227780Y259488D01*
X227891Y259405D01*
X228016Y259322D01*
X228169Y259225D01*
X228321Y259128D01*
X228502Y259044D01*
X228696Y258961D01*
X228904Y258878D01*
X229139Y258822D01*
X229375Y258767D01*
X229625Y258739D01*
X229888Y258725D01*
X230013D01*
X230138Y258739D01*
X230305Y258753D01*
X230513Y258781D01*
X230721Y258836D01*
X230956Y258892D01*
X231178Y258975D01*
X231150Y258989D01*
X231081Y259044D01*
X230956Y259114D01*
X230804Y259197D01*
X230610Y259280D01*
X230402Y259377D01*
X230166Y259460D01*
X229916Y259530D01*
X230235Y260445D01*
X230249D01*
X230291Y260431D01*
X230346Y260417D01*
X230415Y260389D01*
X230513Y260362D01*
X230623Y260320D01*
X230873Y260223D01*
X231164Y260084D01*
X231469Y259932D01*
X231761Y259752D01*
X232052Y259530D01*
X232066Y259543D01*
X232107Y259571D01*
X232163Y259641D01*
X232232Y259724D01*
X232315Y259835D01*
X232412Y259960D01*
X232510Y260112D01*
X232621Y260292D01*
X232718Y260501D01*
X232815Y260736D01*
X232912Y260986D01*
X232995Y261249D01*
X233078Y261555D01*
X233134Y261873D01*
X233161Y262220D01*
X233175Y262595D01*
Y262609D01*
Y262650D01*
Y262705D01*
Y262789D01*
X233161Y262900D01*
Y263011D01*
X233148Y263149D01*
X233120Y263288D01*
X233078Y263607D01*
X233009Y263954D01*
X232912Y264300D01*
X232773Y264633D01*
Y264647D01*
X232759Y264675D01*
X232731Y264716D01*
X232704Y264772D01*
X232607Y264938D01*
X232482Y265133D01*
X232315Y265354D01*
X232107Y265576D01*
X231872Y265798D01*
X231608Y265992D01*
X231594D01*
X231580Y266020D01*
X231539Y266034D01*
X231469Y266076D01*
X231400Y266103D01*
X231317Y266145D01*
X231109Y266242D01*
X230859Y266325D01*
X230568Y266408D01*
X230235Y266464D01*
X229888Y266478D01*
D02*
G37*
G36*
X69868Y261906D02*
X69730D01*
X69633Y261892D01*
X69508Y261878D01*
X69369Y261850D01*
X69217Y261822D01*
X69050Y261781D01*
X68856Y261726D01*
X68676Y261670D01*
X68482Y261587D01*
X68274Y261490D01*
X68079Y261379D01*
X67885Y261240D01*
X67691Y261101D01*
X67511Y260921D01*
X67497Y260907D01*
X67469Y260879D01*
X67428Y260824D01*
X67372Y260741D01*
X67289Y260644D01*
X67220Y260519D01*
X67136Y260366D01*
X67053Y260200D01*
X66956Y260006D01*
X66873Y259784D01*
X66803Y259548D01*
X66734Y259285D01*
X66665Y259007D01*
X66623Y258702D01*
X66596Y258369D01*
X66582Y258023D01*
Y257995D01*
Y257939D01*
Y257842D01*
X66596Y257717D01*
X66609Y257565D01*
X66637Y257385D01*
X66665Y257177D01*
X66693Y256969D01*
X66803Y256497D01*
X66873Y256261D01*
X66970Y256026D01*
X67067Y255790D01*
X67192Y255568D01*
X67330Y255346D01*
X67497Y255152D01*
X67511Y255138D01*
X67538Y255110D01*
X67594Y255055D01*
X67663Y254999D01*
X67760Y254916D01*
X67871Y254833D01*
X67996Y254750D01*
X68149Y254653D01*
X68301Y254555D01*
X68482Y254472D01*
X68676Y254389D01*
X68884Y254306D01*
X69120Y254250D01*
X69355Y254195D01*
X69605Y254167D01*
X69868Y254153D01*
X69993D01*
X70118Y254167D01*
X70285Y254181D01*
X70493Y254209D01*
X70700Y254264D01*
X70936Y254320D01*
X71158Y254403D01*
X71130Y254417D01*
X71061Y254472D01*
X70936Y254542D01*
X70784Y254625D01*
X70590Y254708D01*
X70382Y254805D01*
X70146Y254888D01*
X69896Y254958D01*
X70215Y255873D01*
X70229D01*
X70271Y255859D01*
X70326Y255845D01*
X70395Y255818D01*
X70493Y255790D01*
X70603Y255748D01*
X70853Y255651D01*
X71144Y255512D01*
X71449Y255360D01*
X71741Y255180D01*
X72032Y254958D01*
X72046Y254972D01*
X72087Y254999D01*
X72143Y255069D01*
X72212Y255152D01*
X72295Y255263D01*
X72393Y255388D01*
X72490Y255540D01*
X72600Y255720D01*
X72698Y255928D01*
X72795Y256164D01*
X72892Y256414D01*
X72975Y256677D01*
X73058Y256982D01*
X73114Y257301D01*
X73141Y257648D01*
X73155Y258023D01*
Y258036D01*
Y258078D01*
Y258134D01*
Y258217D01*
X73141Y258328D01*
Y258439D01*
X73127Y258577D01*
X73100Y258716D01*
X73058Y259035D01*
X72989Y259382D01*
X72892Y259728D01*
X72753Y260061D01*
Y260075D01*
X72739Y260103D01*
X72712Y260145D01*
X72684Y260200D01*
X72587Y260366D01*
X72462Y260560D01*
X72295Y260782D01*
X72087Y261004D01*
X71852Y261226D01*
X71588Y261420D01*
X71574D01*
X71560Y261448D01*
X71519Y261462D01*
X71449Y261504D01*
X71380Y261531D01*
X71297Y261573D01*
X71089Y261670D01*
X70839Y261753D01*
X70548Y261836D01*
X70215Y261892D01*
X69868Y261906D01*
D02*
G37*
G36*
X18754Y180672D02*
X16008D01*
Y177246D01*
X18587D01*
X18685Y177260D01*
X18782D01*
X18893Y177274D01*
X19156Y177302D01*
X19447Y177357D01*
X19739Y177440D01*
X20002Y177551D01*
X20127Y177621D01*
X20224Y177704D01*
X20252Y177732D01*
X20307Y177787D01*
X20390Y177898D01*
X20487Y178037D01*
X20584Y178217D01*
X20668Y178439D01*
X20723Y178689D01*
X20751Y178980D01*
Y178994D01*
Y179007D01*
Y179077D01*
X20737Y179202D01*
X20709Y179340D01*
X20682Y179493D01*
X20626Y179673D01*
X20543Y179840D01*
X20446Y180006D01*
X20432Y180020D01*
X20390Y180075D01*
X20321Y180145D01*
X20238Y180242D01*
X20113Y180339D01*
X19974Y180422D01*
X19822Y180505D01*
X19641Y180575D01*
X19627D01*
X19572Y180588D01*
X19489Y180602D01*
X19378Y180630D01*
X19211Y180644D01*
X19003Y180658D01*
X18754Y180672D01*
D02*
G37*
%LPD*%
D10*
X226649Y200661D02*
G03*
X226645Y239337I13352J19339D01*
G01*
X103351Y242039D02*
G03*
X103355Y203363I-13352J-19339D01*
G01*
X155709Y179291D02*
X184291D01*
X155709Y160709D02*
X184291D01*
X17300Y110000D02*
Y164600D01*
Y110000D02*
X42700D01*
Y164600D01*
X17300D02*
X42700D01*
X155709Y200709D02*
X184291D01*
X155709Y219291D02*
X184291D01*
X226650Y200663D02*
Y239337D01*
X103350Y203363D02*
Y242036D01*
D11*
X241250Y249500D02*
G03*
X241250Y249500I-1250J0D01*
G01*
X91250Y193200D02*
G03*
X91250Y193200I-1250J0D01*
G01*
M02*
