G04*
G04 #@! TF.GenerationSoftware,Altium Limited,Altium Designer,25.2.1 (25)*
G04*
G04 Layer_Color=16711935*
%FSLAX44Y44*%
%MOMM*%
G71*
G04*
G04 #@! TF.SameCoordinates,E59C81FF-183B-4B4C-A30A-65E7F72278B8*
G04*
G04*
G04 #@! TF.FilePolarity,Positive*
G04*
G01*
G75*
%ADD10C,0.2000*%
G36*
X173171Y176611D02*
X173254Y176601D01*
X173356Y176592D01*
X173458Y176583D01*
X173578Y176555D01*
X173827Y176500D01*
X174105Y176416D01*
X174244Y176361D01*
X174373Y176296D01*
X174503Y176213D01*
X174632Y176130D01*
X174641Y176120D01*
X174660Y176111D01*
X174697Y176084D01*
X174743Y176037D01*
X174789Y175991D01*
X174854Y175926D01*
X174918Y175852D01*
X174993Y175778D01*
X175067Y175686D01*
X175140Y175575D01*
X175224Y175464D01*
X175298Y175344D01*
X175362Y175205D01*
X175436Y175067D01*
X175492Y174918D01*
X175547Y174752D01*
X174715Y174558D01*
Y174567D01*
X174706Y174586D01*
X174687Y174623D01*
X174669Y174669D01*
X174650Y174724D01*
X174623Y174798D01*
X174549Y174946D01*
X174456Y175113D01*
X174345Y175279D01*
X174207Y175436D01*
X174059Y175575D01*
X174040Y175593D01*
X173985Y175630D01*
X173892Y175677D01*
X173772Y175741D01*
X173615Y175797D01*
X173439Y175852D01*
X173227Y175889D01*
X172995Y175899D01*
X172922D01*
X172875Y175889D01*
X172810D01*
X172737Y175880D01*
X172561Y175852D01*
X172367Y175815D01*
X172163Y175751D01*
X171951Y175658D01*
X171756Y175538D01*
X171747D01*
X171738Y175520D01*
X171673Y175473D01*
X171590Y175399D01*
X171488Y175288D01*
X171368Y175150D01*
X171257Y174993D01*
X171156Y174798D01*
X171063Y174586D01*
Y174576D01*
X171054Y174558D01*
X171045Y174530D01*
X171035Y174484D01*
X171017Y174429D01*
X170998Y174364D01*
X170971Y174207D01*
X170934Y174022D01*
X170897Y173818D01*
X170878Y173596D01*
X170869Y173356D01*
Y173347D01*
Y173319D01*
Y173273D01*
Y173217D01*
X170878Y173153D01*
Y173069D01*
X170887Y172977D01*
X170897Y172875D01*
X170924Y172653D01*
X170971Y172413D01*
X171026Y172173D01*
X171100Y171932D01*
Y171923D01*
X171109Y171905D01*
X171128Y171877D01*
X171146Y171831D01*
X171202Y171719D01*
X171285Y171590D01*
X171387Y171442D01*
X171516Y171285D01*
X171664Y171146D01*
X171840Y171017D01*
X171849D01*
X171868Y171008D01*
X171895Y170989D01*
X171932Y170971D01*
X171978Y170952D01*
X172034Y170924D01*
X172163Y170869D01*
X172330Y170814D01*
X172515Y170767D01*
X172718Y170730D01*
X172931Y170721D01*
X172995D01*
X173051Y170730D01*
X173116D01*
X173180Y170739D01*
X173347Y170777D01*
X173541Y170823D01*
X173735Y170897D01*
X173939Y170998D01*
X174040Y171054D01*
X174133Y171128D01*
X174142Y171137D01*
X174151Y171146D01*
X174179Y171174D01*
X174216Y171202D01*
X174253Y171248D01*
X174299Y171304D01*
X174354Y171359D01*
X174401Y171433D01*
X174456Y171516D01*
X174521Y171609D01*
X174576Y171701D01*
X174632Y171812D01*
X174678Y171932D01*
X174724Y172062D01*
X174771Y172200D01*
X174808Y172348D01*
X175658Y172136D01*
Y172126D01*
X175649Y172089D01*
X175630Y172034D01*
X175603Y171960D01*
X175575Y171877D01*
X175538Y171775D01*
X175492Y171664D01*
X175436Y171544D01*
X175307Y171285D01*
X175140Y171026D01*
X175039Y170897D01*
X174937Y170767D01*
X174826Y170656D01*
X174697Y170545D01*
X174687Y170536D01*
X174669Y170518D01*
X174623Y170499D01*
X174576Y170462D01*
X174503Y170416D01*
X174429Y170370D01*
X174327Y170324D01*
X174225Y170277D01*
X174105Y170222D01*
X173976Y170175D01*
X173837Y170129D01*
X173689Y170083D01*
X173532Y170046D01*
X173365Y170028D01*
X173190Y170009D01*
X173005Y170000D01*
X172903D01*
X172829Y170009D01*
X172746D01*
X172644Y170018D01*
X172533Y170037D01*
X172404Y170055D01*
X172136Y170102D01*
X171858Y170175D01*
X171581Y170277D01*
X171451Y170342D01*
X171322Y170416D01*
X171313Y170425D01*
X171294Y170434D01*
X171257Y170462D01*
X171220Y170499D01*
X171165Y170536D01*
X171100Y170592D01*
X171026Y170656D01*
X170952Y170730D01*
X170878Y170814D01*
X170795Y170897D01*
X170629Y171109D01*
X170471Y171359D01*
X170333Y171636D01*
Y171646D01*
X170314Y171673D01*
X170305Y171719D01*
X170277Y171775D01*
X170259Y171849D01*
X170231Y171941D01*
X170194Y172043D01*
X170166Y172154D01*
X170138Y172274D01*
X170102Y172413D01*
X170055Y172700D01*
X170018Y173023D01*
X170000Y173356D01*
Y173365D01*
Y173402D01*
Y173458D01*
X170009Y173522D01*
Y173615D01*
X170018Y173707D01*
X170028Y173827D01*
X170046Y173948D01*
X170092Y174216D01*
X170157Y174512D01*
X170250Y174808D01*
X170379Y175094D01*
X170388Y175103D01*
X170397Y175131D01*
X170416Y175168D01*
X170453Y175214D01*
X170490Y175279D01*
X170536Y175353D01*
X170656Y175520D01*
X170814Y175704D01*
X170998Y175889D01*
X171211Y176074D01*
X171461Y176231D01*
X171470Y176241D01*
X171498Y176250D01*
X171535Y176268D01*
X171581Y176296D01*
X171655Y176324D01*
X171729Y176352D01*
X171821Y176389D01*
X171923Y176426D01*
X172034Y176462D01*
X172154Y176500D01*
X172413Y176555D01*
X172709Y176601D01*
X173014Y176620D01*
X173106D01*
X173171Y176611D01*
D02*
G37*
G36*
X178654Y176527D02*
X178728Y176518D01*
X178820Y176509D01*
X178922Y176490D01*
X179024Y176472D01*
X179264Y176407D01*
X179504Y176315D01*
X179625Y176259D01*
X179745Y176194D01*
X179856Y176111D01*
X179957Y176019D01*
X179967Y176010D01*
X179985Y176000D01*
X180004Y175963D01*
X180041Y175926D01*
X180087Y175880D01*
X180133Y175815D01*
X180179Y175751D01*
X180235Y175667D01*
X180327Y175492D01*
X180420Y175270D01*
X180457Y175159D01*
X180475Y175030D01*
X180494Y174900D01*
X180503Y174761D01*
Y174743D01*
Y174697D01*
X180494Y174623D01*
X180484Y174521D01*
X180466Y174410D01*
X180429Y174281D01*
X180392Y174142D01*
X180336Y174003D01*
X180327Y173985D01*
X180309Y173939D01*
X180272Y173864D01*
X180216Y173763D01*
X180142Y173652D01*
X180050Y173513D01*
X179939Y173375D01*
X179809Y173217D01*
X179791Y173199D01*
X179745Y173143D01*
X179699Y173097D01*
X179652Y173051D01*
X179597Y172995D01*
X179523Y172922D01*
X179449Y172847D01*
X179356Y172764D01*
X179264Y172672D01*
X179153Y172570D01*
X179033Y172468D01*
X178903Y172348D01*
X178755Y172228D01*
X178608Y172099D01*
X178598Y172089D01*
X178580Y172071D01*
X178543Y172043D01*
X178497Y172006D01*
X178441Y171951D01*
X178376Y171895D01*
X178228Y171775D01*
X178071Y171636D01*
X177923Y171498D01*
X177794Y171378D01*
X177738Y171331D01*
X177692Y171285D01*
X177683Y171276D01*
X177655Y171248D01*
X177618Y171211D01*
X177572Y171156D01*
X177526Y171091D01*
X177470Y171026D01*
X177359Y170869D01*
X180512D01*
Y170111D01*
X176268D01*
Y170120D01*
Y170157D01*
Y170212D01*
X176278Y170287D01*
X176287Y170370D01*
X176305Y170462D01*
X176324Y170555D01*
X176361Y170656D01*
Y170665D01*
X176370Y170675D01*
X176389Y170730D01*
X176426Y170814D01*
X176481Y170924D01*
X176555Y171054D01*
X176647Y171202D01*
X176749Y171350D01*
X176879Y171507D01*
Y171516D01*
X176897Y171525D01*
X176943Y171581D01*
X177027Y171664D01*
X177147Y171784D01*
X177285Y171923D01*
X177461Y172089D01*
X177674Y172274D01*
X177905Y172468D01*
X177914Y172478D01*
X177951Y172505D01*
X178007Y172552D01*
X178071Y172607D01*
X178155Y172681D01*
X178256Y172764D01*
X178358Y172857D01*
X178478Y172959D01*
X178709Y173180D01*
X178940Y173402D01*
X179051Y173513D01*
X179153Y173624D01*
X179245Y173726D01*
X179319Y173827D01*
Y173837D01*
X179338Y173846D01*
X179356Y173874D01*
X179375Y173911D01*
X179440Y174013D01*
X179514Y174133D01*
X179578Y174281D01*
X179643Y174438D01*
X179680Y174613D01*
X179699Y174780D01*
Y174789D01*
Y174798D01*
X179689Y174854D01*
X179680Y174946D01*
X179652Y175048D01*
X179615Y175177D01*
X179551Y175307D01*
X179467Y175436D01*
X179356Y175566D01*
X179338Y175584D01*
X179292Y175621D01*
X179227Y175667D01*
X179125Y175732D01*
X178996Y175788D01*
X178848Y175843D01*
X178672Y175880D01*
X178478Y175889D01*
X178423D01*
X178386Y175880D01*
X178275Y175871D01*
X178145Y175843D01*
X178007Y175806D01*
X177849Y175741D01*
X177701Y175658D01*
X177563Y175547D01*
X177544Y175529D01*
X177507Y175483D01*
X177452Y175408D01*
X177396Y175298D01*
X177332Y175168D01*
X177276Y175002D01*
X177239Y174817D01*
X177221Y174604D01*
X176416Y174687D01*
Y174697D01*
X176426Y174724D01*
Y174771D01*
X176435Y174835D01*
X176453Y174909D01*
X176472Y174993D01*
X176500Y175094D01*
X176527Y175196D01*
X176601Y175418D01*
X176712Y175640D01*
X176777Y175751D01*
X176860Y175862D01*
X176943Y175963D01*
X177036Y176056D01*
X177045Y176065D01*
X177064Y176074D01*
X177091Y176102D01*
X177138Y176130D01*
X177193Y176167D01*
X177258Y176204D01*
X177332Y176250D01*
X177424Y176296D01*
X177526Y176342D01*
X177637Y176389D01*
X177757Y176426D01*
X177886Y176462D01*
X178025Y176490D01*
X178173Y176518D01*
X178330Y176527D01*
X178497Y176537D01*
X178589D01*
X178654Y176527D01*
D02*
G37*
G36*
X167171Y209991D02*
X167254D01*
X167356Y209982D01*
X167467Y209963D01*
X167596Y209945D01*
X167864Y209898D01*
X168142Y209824D01*
X168419Y209723D01*
X168549Y209658D01*
X168678Y209584D01*
X168687Y209575D01*
X168706Y209566D01*
X168743Y209538D01*
X168780Y209501D01*
X168835Y209464D01*
X168900Y209408D01*
X168974Y209344D01*
X169048Y209270D01*
X169122Y209186D01*
X169205Y209103D01*
X169371Y208891D01*
X169529Y208641D01*
X169667Y208364D01*
Y208354D01*
X169686Y208327D01*
X169695Y208280D01*
X169723Y208225D01*
X169741Y208151D01*
X169769Y208058D01*
X169806Y207957D01*
X169834Y207846D01*
X169861Y207726D01*
X169898Y207587D01*
X169945Y207300D01*
X169982Y206977D01*
X170000Y206644D01*
Y206635D01*
Y206598D01*
Y206542D01*
X169991Y206478D01*
Y206385D01*
X169982Y206293D01*
X169972Y206172D01*
X169954Y206052D01*
X169908Y205784D01*
X169843Y205488D01*
X169750Y205192D01*
X169621Y204906D01*
X169612Y204897D01*
X169603Y204869D01*
X169584Y204832D01*
X169547Y204785D01*
X169510Y204721D01*
X169464Y204647D01*
X169344Y204480D01*
X169186Y204296D01*
X169002Y204111D01*
X168789Y203926D01*
X168539Y203769D01*
X168530Y203759D01*
X168502Y203750D01*
X168465Y203731D01*
X168419Y203704D01*
X168345Y203676D01*
X168271Y203648D01*
X168179Y203611D01*
X168077Y203574D01*
X167966Y203537D01*
X167846Y203500D01*
X167587Y203445D01*
X167291Y203399D01*
X166986Y203380D01*
X166894D01*
X166829Y203389D01*
X166746Y203399D01*
X166644Y203408D01*
X166542Y203417D01*
X166422Y203445D01*
X166172Y203500D01*
X165895Y203584D01*
X165756Y203639D01*
X165627Y203704D01*
X165497Y203787D01*
X165368Y203870D01*
X165359Y203880D01*
X165340Y203889D01*
X165303Y203916D01*
X165257Y203963D01*
X165211Y204009D01*
X165146Y204074D01*
X165082Y204148D01*
X165007Y204222D01*
X164933Y204314D01*
X164860Y204425D01*
X164776Y204536D01*
X164702Y204656D01*
X164638Y204795D01*
X164564Y204933D01*
X164508Y205081D01*
X164453Y205248D01*
X165285Y205442D01*
Y205433D01*
X165294Y205414D01*
X165313Y205377D01*
X165331Y205331D01*
X165350Y205276D01*
X165377Y205202D01*
X165451Y205054D01*
X165544Y204887D01*
X165655Y204721D01*
X165793Y204564D01*
X165941Y204425D01*
X165960Y204407D01*
X166015Y204370D01*
X166108Y204323D01*
X166228Y204258D01*
X166385Y204203D01*
X166561Y204148D01*
X166773Y204111D01*
X167005Y204101D01*
X167078D01*
X167125Y204111D01*
X167190D01*
X167263Y204120D01*
X167439Y204148D01*
X167633Y204185D01*
X167837Y204249D01*
X168049Y204342D01*
X168244Y204462D01*
X168253D01*
X168262Y204480D01*
X168327Y204527D01*
X168410Y204601D01*
X168512Y204712D01*
X168632Y204850D01*
X168743Y205007D01*
X168844Y205202D01*
X168937Y205414D01*
Y205424D01*
X168946Y205442D01*
X168955Y205470D01*
X168965Y205516D01*
X168983Y205571D01*
X169002Y205636D01*
X169029Y205793D01*
X169066Y205978D01*
X169103Y206182D01*
X169122Y206404D01*
X169131Y206644D01*
Y206653D01*
Y206681D01*
Y206727D01*
Y206783D01*
X169122Y206847D01*
Y206931D01*
X169112Y207023D01*
X169103Y207125D01*
X169076Y207347D01*
X169029Y207587D01*
X168974Y207827D01*
X168900Y208068D01*
Y208077D01*
X168891Y208095D01*
X168872Y208123D01*
X168854Y208169D01*
X168798Y208280D01*
X168715Y208410D01*
X168613Y208558D01*
X168484Y208715D01*
X168336Y208854D01*
X168160Y208983D01*
X168151D01*
X168132Y208992D01*
X168105Y209011D01*
X168068Y209029D01*
X168022Y209048D01*
X167966Y209076D01*
X167837Y209131D01*
X167670Y209186D01*
X167485Y209233D01*
X167282Y209270D01*
X167069Y209279D01*
X167005D01*
X166949Y209270D01*
X166884D01*
X166820Y209260D01*
X166653Y209223D01*
X166459Y209177D01*
X166265Y209103D01*
X166061Y209002D01*
X165960Y208946D01*
X165867Y208872D01*
X165858Y208863D01*
X165849Y208854D01*
X165821Y208826D01*
X165784Y208798D01*
X165747Y208752D01*
X165701Y208696D01*
X165645Y208641D01*
X165599Y208567D01*
X165544Y208484D01*
X165479Y208391D01*
X165424Y208299D01*
X165368Y208188D01*
X165322Y208068D01*
X165276Y207938D01*
X165229Y207800D01*
X165192Y207652D01*
X164342Y207864D01*
Y207874D01*
X164351Y207911D01*
X164370Y207966D01*
X164397Y208040D01*
X164425Y208123D01*
X164462Y208225D01*
X164508Y208336D01*
X164564Y208456D01*
X164693Y208715D01*
X164860Y208974D01*
X164961Y209103D01*
X165063Y209233D01*
X165174Y209344D01*
X165303Y209455D01*
X165313Y209464D01*
X165331Y209482D01*
X165377Y209501D01*
X165424Y209538D01*
X165497Y209584D01*
X165571Y209630D01*
X165673Y209676D01*
X165775Y209723D01*
X165895Y209778D01*
X166024Y209824D01*
X166163Y209871D01*
X166311Y209917D01*
X166468Y209954D01*
X166635Y209972D01*
X166810Y209991D01*
X166995Y210000D01*
X167097D01*
X167171Y209991D01*
D02*
G37*
G36*
X161448Y204887D02*
X161457Y204897D01*
X161503Y204933D01*
X161559Y204989D01*
X161651Y205054D01*
X161753Y205137D01*
X161882Y205229D01*
X162030Y205331D01*
X162197Y205433D01*
X162206D01*
X162215Y205442D01*
X162271Y205479D01*
X162363Y205525D01*
X162474Y205581D01*
X162604Y205645D01*
X162742Y205710D01*
X162881Y205775D01*
X163020Y205830D01*
Y205072D01*
X163010D01*
X162992Y205054D01*
X162955Y205044D01*
X162909Y205017D01*
X162853Y204989D01*
X162789Y204952D01*
X162631Y204860D01*
X162446Y204758D01*
X162262Y204628D01*
X162067Y204480D01*
X161873Y204323D01*
X161864Y204314D01*
X161855Y204305D01*
X161827Y204277D01*
X161790Y204249D01*
X161707Y204157D01*
X161596Y204046D01*
X161485Y203916D01*
X161365Y203769D01*
X161263Y203621D01*
X161171Y203463D01*
X160662D01*
Y209889D01*
X161448D01*
Y204887D01*
D02*
G37*
D10*
X150709Y159709D02*
Y180291D01*
Y159709D02*
X189291D01*
Y180291D01*
X150709D02*
X189291D01*
Y199709D02*
Y220291D01*
X150709D02*
X189291D01*
X150709Y199709D02*
Y220291D01*
Y199709D02*
X189291D01*
M02*
